<svg id="Layer_1" data-name="Layer 1" xmlns="http://www.w3.org/2000/svg" viewBox="0 0 376.75 292.32"><defs><style>.cls-1{fill:#a0a0a0;}</style></defs><title>Artboard 1</title><path class="cls-1" d="M311.34,22.33H64.59A41.12,41.12,0,0,0,23.47,63.45V228a41.12,41.12,0,0,0,41.12,41.12H311.34A41.12,41.12,0,0,0,352.46,228V63.45A41.12,41.12,0,0,0,311.34,22.33ZM243.65,132.07l87-74.6a19.94,19.94,0,0,1,1.2,6V228a19.47,19.47,0,0,1-.82,4ZM311.34,42.9a19.19,19.19,0,0,1,3.85.78L188,152.73,60.74,43.68a19.05,19.05,0,0,1,3.85-.78ZM44.84,232a19.4,19.4,0,0,1-.81-4V63.45a19.65,19.65,0,0,1,1.22-6l87,74.58Zm19.75,16.54a20,20,0,0,1-5.87-1.18l89.16-101.89,33.4,28.62a10.22,10.22,0,0,0,13.37,0l33.4-28.62L317.2,247.33a19.76,19.76,0,0,1-5.86,1.18Z"/></svg>