<svg id="Layer_1" data-name="Layer 1" xmlns="http://www.w3.org/2000/svg" viewBox="0 0 155.7 230.6"><defs><style>.cls-1{fill:#461811;}.cls-2{fill:#e9c7ac;}.cls-3{fill:#fff;}.cls-4{fill:#4cd5bb;}.cls-5{fill:#f1d6bb;}.cls-6{fill:#010002;}.cls-7{fill:#f9bfa6;}</style></defs><title>Artboard 1 copy 2</title><path class="cls-1" d="M121.18,120.45c-9.83-.26-8.87-11.7-8.87-11.7v-43c0-29.7-30.07-28.95-34.46-28.68-4.39-.27-34.47-1-34.47,28.68v43s0,11.7-8.86,11.7c0,0,4,9.22,42.78,9.4h1.1C117.15,129.67,121.18,120.45,121.18,120.45Z"/><polygon class="cls-2" points="88.04 125.95 77.95 154.25 68.12 125.95 68.12 104.1 88.04 104.1 88.04 125.95"/><path class="cls-2" d="M78,154.25V127s-7.43-1.84-9.07-7.86a21.58,21.58,0,0,1-.76-5.22s-16.25,5.49-19.88,11.16c-3,9-3.85,29.14-3.85,29.14Z"/><path class="cls-2" d="M78,154.25V127s7.44-1.84,9.08-7.86a21.58,21.58,0,0,0,.76-5.22s16.25,5.49,19.88,11.16c3,9,3.85,29.14,3.85,29.14Z"/><path class="cls-3" d="M65.31,117.4s10.52,8.35,25.57,0L76.37,140.61Z"/><path class="cls-4" d="M78.08,136.35S70.2,125.82,68.24,114c-2,.78-9.07,3.14-12,5.11a206.1,206.1,0,0,0-3.89,35.19H78.08Z"/><path class="cls-4" d="M78.1,136.35s8-10.44,9.94-22.31c2,.77,9,3,11.88,5a207.27,207.27,0,0,1,3.89,35.19H78.1Z"/><path class="cls-5" d="M78.08,43.55c-9.67,0-25,5.5-25,31.27,0,14.88,5.8,21.89,7.91,24.59,1.95,2.48,11.93,10.5,17.06,10.5Z"/><path class="cls-5" d="M48.3,81c-.43-4.12,1.53-7.77,4.38-8.16s5.5,2.63,5.92,6.75-1.53,7.77-4.38,8.16S48.72,85.08,48.3,81Z"/><path class="cls-5" d="M78,43.55c9.68,0,25,5.5,25,31.27,0,14.88-5.8,21.89-7.92,24.59-1.94,2.48-11.93,10.5-17.06,10.5Z"/><path class="cls-5" d="M107.87,81c.42-4.12-1.54-7.77-4.38-8.16s-5.5,2.63-5.93,6.75,1.53,7.77,4.38,8.16S107.44,85.08,107.87,81Z"/><path class="cls-3" d="M78.08,100.83c3.77,0,6.83-2.31,6.83-5.17H71.25C71.25,98.52,74.31,100.83,78.08,100.83Z"/><circle class="cls-6" cx="68.48" cy="76.95" r="2.59"/><circle class="cls-6" cx="87.42" cy="76.95" r="2.59"/><rect class="cls-7" x="75.46" y="79.07" width="5" height="10.71" rx="1.94"/><ellipse class="cls-1" cx="80.96" cy="55.24" rx="14.3" ry="24.89" transform="translate(1.44 112.53) rotate(-70.08)"/></svg>