<svg id="Layer_1" data-name="Layer 1" xmlns="http://www.w3.org/2000/svg" viewBox="0 0 100.76 132.17"><defs><style>.cls-1{fill:#474747;}.cls-2{fill:#c18665;}.cls-3{fill:#c99877;}.cls-4{fill:#c99a7b;}.cls-5{fill:#fff;}.cls-6{fill:#4cd5bb;}.cls-7{fill:#010002;}.cls-8{fill:#d17566;}.cls-9{fill:#269d86;}</style></defs><path class="cls-1" d="M24,51.61c0,11.38-6.24,11.67-5.8,19.21.5,8.34,7,8.36,7,14.1s-6,12.16-.68,18.34H50.21V33.67Z"/><path class="cls-1" d="M76.37,51.61c0,11.38,6.24,11.67,5.79,19.21-.49,8.34-7,8.36-7,14.1s6,12.16.68,18.34H50.19V33.67Z"/><path class="cls-1" d="M80.06,39.84A29.74,29.74,0,1,0,50.33,69.57,29.73,29.73,0,0,0,80.06,39.84Z"/><polygon class="cls-2" points="60.27 103.51 50.2 131.76 40.38 103.51 40.38 81.7 60.27 81.7 60.27 103.51"/><path class="cls-3" d="M50.33,21.24c-9.66,0-24.94,5.49-24.94,31.22,0,14.86,5.79,21.86,7.9,24.55,1.94,2.48,11.91,10.49,17,10.49Z"/><path class="cls-3" d="M20.59,58.6c-.43-4.12,1.53-7.76,4.37-8.15s5.49,2.62,5.92,6.73-1.54,7.76-4.38,8.15S21,62.71,20.59,58.6Z"/><path class="cls-3" d="M50.25,21.24c9.66,0,24.93,5.49,24.93,31.22,0,14.86-5.79,21.86-7.9,24.55-1.94,2.48-11.91,10.49-17,10.49Z"/><path class="cls-3" d="M80.06,58.6c.43-4.12-1.53-7.76-4.37-8.15s-5.49,2.62-5.92,6.73,1.54,7.76,4.38,8.15S79.64,62.71,80.06,58.6Z"/><path class="cls-4" d="M50.2,131.77V104.59s-7.42-1.84-9.06-7.85a21.48,21.48,0,0,1-.76-5.21S24.15,97,20.53,102.68c-3,9-3.84,29.09-3.84,29.09Z"/><path class="cls-4" d="M50.2,131.77V104.59s7.42-1.84,9.06-7.85A21.48,21.48,0,0,0,60,91.53S76.25,97,79.87,102.68c3,9,3.84,29.09,3.84,29.09Z"/><path class="cls-5" d="M50.33,78.44c3.76,0,6.81-2.32,6.81-5.17H43.51C43.51,76.12,46.56,78.44,50.33,78.44Z"/><path class="cls-1" d="M48.92,13.84c-17.65,0-23,15.46-23,22.58-6.4,8.9.58,16.86,5.52,19.65V51.69c0-5.75,5.47-11.08,13.69-10.19,7.36.79,12-3.37,15.92-10.44C65.86,21.58,59.83,13.84,48.92,13.84Z"/><path class="cls-1" d="M60.27,28.15s4.13,16.74,15.42,22.3c2-15.06,3.2-11.89,0-19.81S60.27,16.83,60.27,16.83Z"/><path class="cls-6" d="M79.86,102.45c-3-4.81-14.81-9.49-18.64-10.92a11,11,0,0,1-22.07,0C35.32,93,23.54,97.64,20.52,102.45c-3,9.14-3.84,29.63-3.84,29.63h67S82.87,111.59,79.86,102.45Z"/><path class="cls-6" d="M83.7,132.08s-.83-20.34-3.84-29.41c-3-4.77-14.81-9.42-18.64-10.83a11.1,11.1,0,0,1-11,10.74v29.5Z"/><path class="cls-5" d="M35.51,92.93a14.88,14.88,0,0,0,29.35,0c-1.49-.61-2.77-1.08-3.64-1.4a11,11,0,0,1-22.07,0C38.28,91.85,37,92.32,35.51,92.93Z"/><circle class="cls-7" cx="40.49" cy="54.7" r="2.58"/><circle class="cls-7" cx="59.4" cy="54.7" r="2.58"/><rect class="cls-8" x="47.69" y="56.02" width="4.99" height="10.69" rx="1.94"/><circle class="cls-9" cx="30.72" cy="110.83" r="4.79"/><circle class="cls-9" cx="42.72" cy="122.82" r="4.79"/><circle class="cls-9" cx="57.67" cy="110.83" r="4.79"/><circle class="cls-9" cx="69.66" cy="122.82" r="4.79"/></svg>