<?xml version="1.0" encoding="utf-8"?>
<!-- Generator: Adobe Illustrator 22.1.0, SVG Export Plug-In . SVG Version: 6.00 Build 0)  -->
<svg version="1.1" id="Layer_1" xmlns="http://www.w3.org/2000/svg" xmlns:xlink="http://www.w3.org/1999/xlink" x="0px" y="0px"
	 viewBox="0 0 156 231" style="enable-background:new 0 0 156 231;" xml:space="preserve">
<style type="text/css">
	.st0{fill:#F03A47;}
	.st1{fill:#461811;}
	.st2{fill:#E9C7AC;}
	.st3{fill:#F1D6BB;}
	.st4{fill:#FFFFFF;}
	.st5{fill:#FFC400;}
	.st6{fill:#0579B2;}
	.st7{fill:#010002;}
	.st8{fill:#F9BFA6;}
	.st9{fill:#14A799;}
	.st10{fill:#C0C3C5;}
	.st11{fill:#4CD5BB;}
	.st12{fill:#D8A68B;}
	.st13{fill:#8A5F3C;}
	.st14{fill:#B8C6CF;}
	.st15{fill:#00CCB0;}
	.st16{fill:#E5E6E7;}
	.st17{fill:#C9D0D9;stroke:#010002;stroke-width:3;stroke-miterlimit:10;}
	.st18{fill:none;stroke:#010002;stroke-width:3;stroke-miterlimit:10;}
</style>
<rect x="67.1" y="98.8" class="st12" width="19.9" height="21.8"/>
<path class="st3" d="M76.3,35.9c9.7,0,24.9,5.5,24.9,31.2c0,14.9-4.8,24.6-7,27.3c-1.9,2.5-12.9,7.8-18,7.8
	C76.3,76.2,76.3,35.9,76.3,35.9z"/>
<path class="st3" d="M106,73.3c0.4-4.1-1.5-7.8-4.4-8.1c-2.8-0.4-5.5,2.6-5.9,6.7c-0.4,4.1,1.5,7.8,4.4,8.1
	C102.9,80.4,105.6,77.4,106,73.3z"/>
<path class="st3" d="M77.1,35.9c-9.7,0-24.9,5.5-24.9,31.2c0,14.9,4.8,24.6,7,27.3c1.9,2.5,12.9,7.8,18,7.8
	C77.1,76.2,77.1,35.9,77.1,35.9z"/>
<path class="st3" d="M47.3,73.3c-0.4-4.1,1.5-7.8,4.4-8.1c2.8-0.4,5.5,2.6,5.9,6.7c0.4,4.1-1.5,7.8-4.4,8.1
	C50.4,80.4,47.8,77.4,47.3,73.3z"/>
<path class="st16" d="M64.1,41.3c0,0-8.4,10-5.2,19.3c0.5,11.1-0.5,14.9-4.1,17.9c0.9-10.8-0.2-14.4-4.1-13.1
	C49,57,52.5,34.3,64.1,41.3z"/>
<path class="st16" d="M90,41.3c0,0,8.4,10,5.2,19.3c-0.5,11.1,0.5,14.9,4.1,17.9c-0.9-10.8,0.2-14.4,4.1-13.1
	C105.1,57,101.6,34.3,90,41.3z"/>
<path class="st16" d="M90.4,90.8c-4.9,0-8.4-4-13.9-4c-5.6,0-9.1,4-13.9,4c-5.3,0-8.7-9.2-9.7-12.4c1.4,9.3,4.5,15.4,6.1,17.4
	c1.9,2.4,12.5,7.6,17.5,7.6h0l0,0c5,0,15.6-5.1,17.5-7.6c1.6-2,4.7-8.1,6.1-17.4C99.1,81.6,95.8,90.8,90.4,90.8z"/>
<path class="st5" d="M87.2,108.7h3.4c6.3,1.6,13.2,2.8,17.8,8.1c2.9,3.3,7.8,31.1,7.8,31.1h-12.1h-27v-25.4v-6
	C82.7,116.5,87.2,113,87.2,108.7z"/>
<path class="st5" d="M68.1,108.7h-3.4c-6.3,1.6-13.2,2.8-17.8,8.1c-2.9,3.3-7.8,31.1-7.8,31.1h12.1h27v-25.4v-6
	C72.5,116.5,68.1,113,68.1,108.7z"/>
<path class="st4" d="M77.2,119c7.4,0,13.3-4.6,13.3-10.3h-3.4c0,4.3-4.4,7.8-9.9,7.8c-5.5,0-9.9-3.5-9.9-7.8h-3.4
	C63.9,114.4,69.9,119,77.2,119z"/>
<circle class="st7" cx="67.9" cy="71.1" r="2.6"/>
<circle class="st7" cx="86.8" cy="71.1" r="2.6"/>
<path class="st8" d="M77.9,83.9h-1.1c-1.1,0-1.9-0.9-1.9-1.9v-6.8c0-1.1,0.9-1.9,1.9-1.9h1.1c1.1,0,1.9,0.9,1.9,1.9V82
	C79.9,83.1,79,83.9,77.9,83.9z"/>
<path class="st6" d="M91.4,108.7l0.4,39.2h25.3c0,0-4.8-28.3-7.8-31.1c-3.1-2.8-4.4-4.4-9.4-5.8C94.9,109.6,91.4,108.7,91.4,108.7z"
	/>
<path class="st6" d="M63.6,108.7l-0.4,39.2H37.9c0,0,4.8-28.3,7.8-31.1c3.1-2.8,4.4-4.4,9.4-5.8C60.1,109.6,63.6,108.7,63.6,108.7z"
	/>
<path class="st4" d="M77.1,97.9c3.1,0,5.6-1.3,5.6-2.9H71.5C71.5,96.6,74,97.9,77.1,97.9z"/>
</svg>
