<svg id="Layer_1" data-name="Layer 1" xmlns="http://www.w3.org/2000/svg" viewBox="0 0 100.76 132.17"><defs><style>.cls-1{fill:#842c28;}.cls-2{fill:#ddb294;}.cls-3{fill:#e8c5a6;}.cls-4{fill:#fff;}.cls-5{fill:#4cd5bb;}.cls-6{fill:#010002;}.cls-7{fill:#e8a38b;}</style></defs><path class="cls-1" d="M24.47,53.41c0,11.38-6.25,11.68-5.8,19.21.49,8.35,7,8.36,7,14.1s-6,12.17-.69,18.34H50.65V35.48Z"/><path class="cls-1" d="M76.8,53.41c0,11.38,6.25,11.68,5.8,19.21-.49,8.35-7,8.36-7,14.1s6,12.17.69,18.34H50.62V35.48Z"/><circle class="cls-1" cx="50.51" cy="40.16" r="29.73" transform="translate(-13.6 47.48) rotate(-45)"/><polygon class="cls-2" points="60.45 103.83 50.38 132.08 40.56 103.83 40.56 82.01 60.45 82.01 60.45 103.83"/><path class="cls-3" d="M50.51,21.55c-9.66,0-24.94,5.5-24.94,31.23,0,14.85,5.79,21.86,7.9,24.55,2,2.48,11.92,10.48,17,10.48Z"/><path class="cls-3" d="M20.77,58.91c-.43-4.11,1.53-7.76,4.37-8.15s5.49,2.63,5.92,6.74-1.53,7.76-4.37,8.15S21.19,63,20.77,58.91Z"/><path class="cls-3" d="M50.43,21.55c9.66,0,24.93,5.5,24.93,31.23,0,14.85-5.79,21.86-7.9,24.55-1.94,2.48-11.91,10.48-17,10.48Z"/><path class="cls-3" d="M80.25,58.91c.42-4.11-1.54-7.76-4.38-8.15S70.38,53.39,70,57.5s1.54,7.76,4.38,8.15S79.82,63,80.25,58.91Z"/><path class="cls-2" d="M50.38,132.08l-4.53-20.93S43,103.07,41.32,97.06a21.48,21.48,0,0,1-.76-5.21S24.33,97.33,20.71,103c-3,9-3.84,29.09-3.84,29.09Z"/><path class="cls-2" d="M50.38,132.08l1.8-13.45s5.62-15.56,7.26-21.57a20.9,20.9,0,0,0,.76-5.21S76.43,97.33,80.05,103c3,9,3.84,29.09,3.84,29.09Z"/><path class="cls-4" d="M50.51,78.75c3.76,0,6.82-2.31,6.82-5.16H43.69C43.69,76.44,46.74,78.75,50.51,78.75Z"/><path class="cls-1" d="M49.1,14.15c-17.65,0-23,15.46-23,22.58-6.4,8.9.57,16.86,5.51,19.66V52c0-5.75,5.47-11.08,13.69-10.19,7.37.79,12-3.37,15.92-10.45C66.05,21.9,60,14.15,49.1,14.15Z"/><path class="cls-1" d="M60.45,28.46s4.13,16.75,15.42,22.3c2-15,3.2-11.88,0-19.8S60.45,17.14,60.45,17.14Z"/><path class="cls-5" d="M50.59,121.35s-7.14-17.89-9.82-29.61c-2.7,1.05-4.92,1.7-6.61,2.58-8,16.91-8.38,37.65-8.38,37.65H50.59Z"/><path class="cls-5" d="M50.49,121.46s7.15-17.89,9.82-29.61c2.71,1.05,4.92,1.7,6.62,2.58,8,16.91,8.37,37.65,8.37,37.65H50.49Z"/><circle class="cls-6" cx="40.93" cy="54.91" r="2.58"/><circle class="cls-6" cx="59.83" cy="54.91" r="2.58"/><rect class="cls-7" x="47.89" y="57.02" width="4.99" height="10.69" rx="1.94"/></svg>