<svg id="Layer_1" data-name="Layer 1" xmlns="http://www.w3.org/2000/svg" viewBox="0 0 155.7 230.6"><defs><style>.cls-1{fill:#e9c7ac;}.cls-2{fill:#f1d6bb;}.cls-3{fill:#fff;}.cls-4{fill:#4bb4e9;}.cls-5{fill:#010002;}.cls-6{fill:#f9bfa6;}.cls-7{fill:#8a5f3c;}</style></defs><title>Artboard 1 copy 4</title><rect class="cls-1" x="68.87" y="100.81" width="19.76" height="21.66"/><path class="cls-2" d="M78,41.49c9.59,0,24.76,5.46,24.76,31,0,14.75-4.81,24.42-6.91,27.09-1.92,2.46-12.77,7.7-17.85,7.7Z"/><path class="cls-2" d="M107.49,78.59c.42-4.08-1.52-7.7-4.34-8.09s-5.46,2.61-5.88,6.69,1.52,7.71,4.35,8.09S107.07,82.67,107.49,78.59Z"/><path class="cls-2" d="M78.75,41.49C69.16,41.49,54,47,54,72.5c0,14.75,4.81,24.42,6.91,27.09,1.92,2.46,12.76,7.7,17.85,7.7Z"/><path class="cls-2" d="M49.22,78.59c-.43-4.08,1.52-7.7,4.34-8.09s5.45,2.61,5.88,6.69-1.52,7.71-4.35,8.09S49.64,82.67,49.22,78.59Z"/><path class="cls-3" d="M78.75,97.65c4.47,0,8.1-1.47,8.1-3.29H70.66C70.66,96.18,74.28,97.65,78.75,97.65Z"/><path class="cls-4" d="M90.77,116.76s18.79,2.75,21.56,5.64c2.42,2.51,7.44,26.61,8.6,31.9H78.5V117.78Z"/><path class="cls-4" d="M66.22,116.76s-18.78,2.75-21.55,5.64c-2.42,2.51-7.44,26.61-8.6,31.9H78.5V117.78Z"/><polyline class="cls-1" points="90.77 116.76 78.5 117.25 66.82 116.81 78.75 124.83"/><circle class="cls-5" cx="69.33" cy="76.95" r="2.57"/><circle class="cls-5" cx="88.11" cy="76.95" r="2.57"/><rect class="cls-6" x="76.25" y="79.05" width="4.95" height="10.61" rx="1.94"/><path class="cls-7" d="M78.58,54.17s-3,.17-12.72-1.88c-8.67-1.82-9,8.77-8.55,10.42.93,3.37.61,4.9.44,7.81s.28,4.23.06,4.49-1.11.57-1.33.36-.45-2.56-1.55-3.32a7.27,7.27,0,0,0-2.37-1s-2.52-11.61,1-22.57c2.46-7.73,14-5,25.06-5Z"/><path class="cls-7" d="M78.58,54.17s3,.17,12.72-1.88c8.67-1.82,9,8.77,8.55,10.42-.92,3.37-.61,4.9-.44,7.81s-.28,4.23-.06,4.49,1.11.57,1.33.36.45-2.56,1.56-3.32a7.27,7.27,0,0,1,2.36-1s1.78-13-.39-20.76-14.52-6.82-25.63-6.82Z"/><path class="cls-7" d="M63.37,52c2.49.69,24.64,6.18,31.4,4.36,11.27-3,12.78-14.65,12.78-14.65S98.47,43,97,42.41l1.71-1.7c-1.82-.46-35.3-2.48-39.07,3.61C56.45,49.42,63.37,52,63.37,52Z"/></svg>