<svg id="Layer_1" data-name="Layer 1" xmlns="http://www.w3.org/2000/svg" viewBox="0 0 100.76 132.17"><defs><style>.cls-1{fill:#d1d1d1;}.cls-2{fill:#63422b;}.cls-3{fill:#704d35;}.cls-4{fill:#e9c7ac;}.cls-5{fill:#fff;}.cls-6{fill:#4cd5bb;}.cls-7{fill:#c9d0d9;}.cls-7,.cls-8{stroke:#010002;stroke-miterlimit:10;stroke-width:3px;}.cls-8{fill:none;}.cls-9{fill:#c96e55;}.cls-10{fill:#269d86;}</style></defs><path class="cls-1" d="M80.24,40.36A29.73,29.73,0,1,0,50.51,70.09,29.73,29.73,0,0,0,80.24,40.36Z"/><polygon class="cls-2" points="60.46 104.03 50.39 132.29 40.57 104.03 40.57 82.22 60.46 82.22 60.46 104.03"/><path class="cls-3" d="M50.51,21.76c-9.66,0-24.93,5.49-24.93,31.22,0,14.86,5.79,21.86,7.9,24.55C35.42,80,45.39,88,50.51,88Z"/><path class="cls-3" d="M20.77,59.12C20.35,55,22.31,51.36,25.15,51s5.49,2.62,5.92,6.74-1.54,7.75-4.38,8.14S21.2,63.23,20.77,59.12Z"/><path class="cls-3" d="M50.43,21.76c9.66,0,24.94,5.49,24.94,31.22,0,14.86-5.79,21.86-7.9,24.55C65.53,80,55.56,88,50.43,88Z"/><path class="cls-3" d="M80.25,59.12c.43-4.11-1.53-7.76-4.37-8.15S70.39,53.59,70,57.71s1.53,7.75,4.38,8.14S79.83,63.23,80.25,59.12Z"/><path class="cls-4" d="M50.39,132.29V105.11s-7.42-1.84-9.06-7.85a20.85,20.85,0,0,1-.76-5.2S24.34,97.54,20.72,103.2c-3,9-3.85,29.09-3.85,29.09Z"/><path class="cls-4" d="M50.39,132.29V105.11s7.42-1.84,9.06-7.85a21.43,21.43,0,0,0,.76-5.2s16.23,5.48,19.85,11.14c3,9,3.84,29.09,3.84,29.09Z"/><path class="cls-2" d="M50.39,132.29V105.11s-7.42-1.84-9.06-7.85a20.85,20.85,0,0,1-.76-5.2S24.34,97.54,20.72,103.2c-3,9-3.85,29.09-3.85,29.09Z"/><path class="cls-2" d="M50.39,132.29V105.11s7.42-1.84,9.06-7.85a21.43,21.43,0,0,0,.76-5.2s16.23,5.48,19.85,11.14c3,9,3.84,29.09,3.84,29.09Z"/><path class="cls-5" d="M50.51,79c3.77,0,6.82-2.32,6.82-5.17H43.7C43.7,76.64,46.75,79,50.51,79Z"/><path class="cls-1" d="M49.11,14.36c-17.65,0-23,15.46-23,22.58-6.4,8.9.58,16.86,5.52,19.65V52.21c0-5.75,5.47-11.08,13.69-10.19,7.36.8,12-3.37,15.92-10.44C66.05,22.1,60,14.36,49.11,14.36Z"/><path class="cls-1" d="M60.46,28.67S64.58,45.41,75.88,51c2-15,3.2-11.88,0-19.81S60.46,17.35,60.46,17.35Z"/><path class="cls-6" d="M80.06,103.2c-3-4.72-14.81-9.32-18.64-10.71a11,11,0,0,1-22.07,0c-3.83,1.39-15.61,6-18.63,10.71-3,9-3.85,29.09-3.85,29.09h67S83.07,112.17,80.06,103.2Z"/><path class="cls-6" d="M83.9,132.29s-.83-20.12-3.84-29.09c-3-4.72-14.81-9.32-18.64-10.71a11,11,0,0,1-11,10.61v29.19Z"/><path class="cls-1" d="M60.46,10.63a9.95,9.95,0,1,0-10,9.95A10,10,0,0,0,60.46,10.63Z"/><circle class="cls-7" cx="37.94" cy="53.73" r="8.17"/><circle class="cls-7" cx="62.31" cy="53.73" r="8.17"/><line class="cls-8" x1="46.3" y1="53.73" x2="54.46" y2="53.73"/><line class="cls-8" x1="35.26" y1="56.28" x2="40.62" y2="56.28"/><line class="cls-8" x1="59.63" y1="56.28" x2="64.99" y2="56.28"/><rect class="cls-9" x="47.56" y="57.02" width="4.99" height="10.69" rx="1.94"/><path class="cls-10" d="M35.71,93.89v38.4h-19s.54-23.39,3.88-29.06S35.71,93.89,35.71,93.89Z"/><path class="cls-10" d="M64.92,93.89v38.4H84.1s-.55-23.39-3.91-29.06S64.92,93.89,64.92,93.89Z"/><circle class="cls-5" cx="25.26" cy="65.97" r="1.74"/><circle class="cls-5" cx="75.37" cy="65.97" r="1.74"/></svg>