<?xml version="1.0" encoding="utf-8"?>
<!-- Generator: Adobe Illustrator 22.1.0, SVG Export Plug-In . SVG Version: 6.00 Build 0)  -->
<svg version="1.1" id="Layer_1" xmlns="http://www.w3.org/2000/svg" xmlns:xlink="http://www.w3.org/1999/xlink" x="0px" y="0px"
	 viewBox="0 0 156 231" style="enable-background:new 0 0 156 231;" xml:space="preserve">
<style type="text/css">
	.st0{fill:#F03A47;}
	.st1{fill:#461811;}
	.st2{fill:#E9C7AC;}
	.st3{fill:#F1D6BB;}
	.st4{fill:#FFFFFF;}
	.st5{fill:#FFC400;}
	.st6{fill:#0579B2;}
	.st7{fill:#010002;}
	.st8{fill:#F9BFA6;}
	.st9{fill:#14A799;}
	.st10{fill:#C0C3C5;}
	.st11{fill:#4CD5BB;}
	.st12{fill:#D8A68B;}
	.st13{fill:#8A5F3C;}
	.st14{fill:#B8C6CF;}
	.st15{fill:#00CCB0;}
	.st16{fill:#E5E6E7;}
	.st17{fill:#C9D0D9;stroke:#010002;stroke-width:3;stroke-miterlimit:10;}
	.st18{fill:none;stroke:#010002;stroke-width:3;stroke-miterlimit:10;}
</style>
<path class="st16" d="M108.2,62.5c0-16.4-13.3-29.7-29.7-29.7S48.7,46.1,48.7,62.5S62,92.2,78.4,92.2S108.2,78.9,108.2,62.5z"/>
<polygon class="st2" points="88.4,126.2 78.3,154.4 68.5,126.2 68.5,104.4 88.4,104.4 "/>
<path class="st3" d="M78.4,43.9c-9.7,0-24.9,5.5-24.9,31.2c0,14.9,5.8,21.9,7.9,24.6c1.9,2.5,11.9,10.5,17,10.5
	C78.4,84.2,78.4,43.9,78.4,43.9z"/>
<path class="st3" d="M48.7,81.3c-0.4-4.1,1.5-7.8,4.4-8.1c2.8-0.4,5.5,2.6,5.9,6.7c0.4,4.1-1.5,7.8-4.4,8.1
	C51.8,88.4,49.1,85.4,48.7,81.3z"/>
<path class="st3" d="M78.3,43.9c9.7,0,24.9,5.5,24.9,31.2c0,14.9-5.8,21.9-7.9,24.6c-1.9,2.5-11.9,10.5-17,10.5
	C78.3,84.2,78.3,43.9,78.3,43.9z"/>
<path class="st3" d="M108.2,81.3c0.4-4.1-1.5-7.8-4.4-8.1c-2.8-0.4-5.5,2.6-5.9,6.7c-0.4,4.1,1.5,7.8,4.4,8.1
	C105.1,88.4,107.7,85.4,108.2,81.3z"/>
<path class="st2" d="M78.3,154.4v-27.2c0,0-7.4-1.8-9.1-7.9c-0.8-2.9-0.8-5.2-0.8-5.2s-16.2,5.5-19.9,11.1c-3,9-3.8,29.1-3.8,29.1
	H78.3z"/>
<path class="st2" d="M78.3,154.4v-27.2c0,0,7.4-1.8,9.1-7.9c0.8-2.9,0.8-5.2,0.8-5.2s16.2,5.5,19.9,11.1c3,9,3.8,29.1,3.8,29.1H78.3
	z"/>
<path class="st2" d="M78.3,154.4v-27.2c0,0-7.4-1.8-9.1-7.9c-0.8-2.9-0.8-5.2-0.8-5.2s-16.2,5.5-19.9,11.1c-3,9-3.8,29.1-3.8,29.1
	H78.3z"/>
<path class="st2" d="M78.3,154.4v-27.2c0,0,7.4-1.8,9.1-7.9c0.8-2.9,0.8-5.2,0.8-5.2s16.2,5.5,19.9,11.1c3,9,3.8,29.1,3.8,29.1H78.3
	z"/>
<path class="st4" d="M78.4,101.1c3.8,0,6.8-2.3,6.8-5.2H71.6C71.6,98.8,74.7,101.1,78.4,101.1z"/>
<g>
	<path class="st16" d="M77,36.5c-17.6,0-23,15.5-23,22.6C47.6,68,54.6,76,59.5,78.7c0-1.7,0-2.3,0-4.4c0-5.8,5.5-11.1,13.7-10.2
			c7.4,0.8,12-3.4,15.9-10.4C94,44.3,87.9,36.5,77,36.5z"/>
</g>
<g>
	<path class="st16" d="M88.4,50.8c0,0,4.1,16.7,15.4,22.3c2-15.1,3.2-11.9,0-19.8S88.4,39.5,88.4,39.5V50.8z"/>
</g>
<path class="st15" d="M108,125.4c-3-4.7-14.8-9.3-18.6-10.7c-0.2,5.9-5.1,10.6-11,10.6c-6,0-10.8-4.7-11-10.6
	c-3.8,1.4-15.6,6-18.6,10.7c-3,9-3.8,29.1-3.8,29.1h33.5h33.5C111.8,154.4,111,134.3,108,125.4z"/>
<path class="st15" d="M111.8,154.4c0,0-0.8-20.1-3.8-29.1c-3-4.7-14.8-9.3-18.6-10.7c-0.2,5.9-5.1,10.6-11,10.6v29.2H111.8z"/>
<g>
	<path class="st4" d="M63.6,116c1.1,7.1,7.3,12.6,14.7,12.6c7.4,0,13.6-5.4,14.7-12.6c-1.5-0.6-2.8-1.1-3.6-1.4
			c-0.2,5.9-5.1,10.6-11,10.6c-6,0-10.8-4.7-11-10.6C66.4,115,65.1,115.4,63.6,116z"/>
</g>
<path class="st16" d="M88.4,32.8c0-5.5-4.5-9.9-9.9-9.9c-5.5,0-9.9,4.5-9.9,9.9c0,5.5,4.5,9.9,9.9,9.9
	C83.9,42.7,88.4,38.3,88.4,32.8z"/>
<circle class="st17" cx="65.8" cy="75.9" r="8.2"/>
<circle class="st17" cx="90.2" cy="75.9" r="8.2"/>
<line class="st18" x1="74.2" y1="75.9" x2="82.4" y2="75.9"/>
<line class="st18" x1="63.2" y1="78.4" x2="68.5" y2="78.4"/>
<line class="st18" x1="87.5" y1="78.4" x2="92.9" y2="78.4"/>
<path class="st8" d="M78.5,89.9h-1.1c-1.1,0-1.9-0.9-1.9-1.9v-6.8c0-1.1,0.9-1.9,1.9-1.9h1.1c1.1,0,1.9,0.9,1.9,1.9v6.8
	C80.4,89,79.6,89.9,78.5,89.9z"/>
<path class="st6" d="M63.6,116v38.3H44.8c0,0,0.5-23.3,3.8-29C51.9,119.7,63.6,116,63.6,116z"/>
<path class="st6" d="M92.8,116v38.3h18.8c0,0-0.5-23.3-3.8-29C104.5,119.7,92.8,116,92.8,116z"/>
<circle class="st4" cx="53.2" cy="88.1" r="1.7"/>
<circle class="st4" cx="103.3" cy="88.1" r="1.7"/>
</svg>
