<?xml version="1.0" encoding="utf-8"?>
<!-- Generator: Adobe Illustrator 22.1.0, SVG Export Plug-In . SVG Version: 6.00 Build 0)  -->
<svg version="1.1" id="Layer_1" xmlns="http://www.w3.org/2000/svg" xmlns:xlink="http://www.w3.org/1999/xlink" x="0px" y="0px"
	 viewBox="0 0 156 231" style="enable-background:new 0 0 156 231;" xml:space="preserve">
<style type="text/css">
	.st0{fill:#F03A47;}
	.st1{fill:#461811;}
	.st2{fill:#E9C7AC;}
	.st3{fill:#F1D6BB;}
	.st4{fill:#FFFFFF;}
	.st5{fill:#FFC400;}
	.st6{fill:#0579B2;}
	.st7{fill:#010002;}
	.st8{fill:#F9BFA6;}
	.st9{fill:#14A799;}
	.st10{fill:#C0C3C5;}
	.st11{fill:#4CD5BB;}
	.st12{fill:#D8A68B;}
	.st13{fill:#8A5F3C;}
	.st14{fill:#B8C6CF;}
	.st15{fill:#00CCB0;}
	.st16{fill:#E5E6E7;}
	.st17{fill:#C9D0D9;stroke:#010002;stroke-width:3;stroke-miterlimit:10;}
	.st18{fill:none;stroke:#010002;stroke-width:3;stroke-miterlimit:10;}
</style>
<rect x="68.9" y="98.8" class="st12" width="19.9" height="21.8"/>
<path class="st3" d="M78.1,35.9c9.7,0,24.9,5.5,24.9,31.2c0,14.9-4.8,24.6-7,27.3c-1.9,2.5-12.9,7.8-18,7.8
	C78.1,76.2,78.1,35.9,78.1,35.9z"/>
<path class="st3" d="M107.8,73.3c0.4-4.1-1.5-7.8-4.4-8.1c-2.8-0.4-5.5,2.6-5.9,6.7c-0.4,4.1,1.5,7.8,4.4,8.1
	C104.7,80.4,107.4,77.4,107.8,73.3z"/>
<path class="st3" d="M78.9,35.9c-9.7,0-24.9,5.5-24.9,31.2c0,14.9,4.8,24.6,7,27.3c1.9,2.5,12.9,7.8,18,7.8
	C78.9,76.2,78.9,35.9,78.9,35.9z"/>
<path class="st3" d="M49.1,73.3c-0.4-4.1,1.5-7.8,4.4-8.1c2.8-0.4,5.5,2.6,5.9,6.7c0.4,4.1-1.5,7.8-4.4,8.1
	C52.2,80.4,49.6,77.4,49.1,73.3z"/>
<path class="st16" d="M65.9,41.3c0,0-8.4,10-5.2,19.3c0.5,11.1-0.5,14.9-4.1,17.9c0.9-10.8-0.2-14.4-4.1-13.1
	C50.8,57,54.3,34.3,65.9,41.3z"/>
<path class="st16" d="M91.8,41.3c0,0,8.4,10,5.2,19.3c-0.5,11.1,0.5,14.9,4.1,17.9c-0.9-10.8,0.2-14.4,4.1-13.1
	C106.9,57,103.4,34.3,91.8,41.3z"/>
<g>
	<path class="st16" d="M102.7,45.7c-4-16.3-28.2-29.2-45.2-3.5c-1.1,5.1,3.7,7.4,3.7,7.4s3.2-7.4,17.7-4c7.3-1.6,14.3-2.8,17.6,3.9
		C99.8,56.2,102.7,45.7,102.7,45.7z"/>
</g>
<path class="st16" d="M92.2,90.8c-4.9,0-8.4-4-13.9-4c-5.6,0-9.1,4-13.9,4c-5.3,0-8.7-9.2-9.7-12.4c1.4,9.3,4.5,15.4,6.1,17.4
	c1.9,2.4,12.5,7.6,17.5,7.6h0l0,0c5,0,15.6-5.1,17.5-7.6c1.6-2,4.7-8.1,6.1-17.4C100.9,81.6,97.6,90.8,92.2,90.8z"/>
<path class="st15" d="M89,108.7h3.4c6.3,1.6,13.2,2.8,17.8,8.1c2.9,3.3,7.8,31.1,7.8,31.1H106H79v-25.4v-6
	C84.5,116.5,89,113,89,108.7z"/>
<path class="st15" d="M69.9,108.7h-3.4c-6.3,1.6-13.2,2.8-17.8,8.1c-2.9,3.3-7.8,31.1-7.8,31.1h12.1h27v-25.4v-6
	C74.3,116.5,69.9,113,69.9,108.7z"/>
<path class="st4" d="M79,119c7.4,0,13.3-4.6,13.3-10.3H89c0,4.3-4.4,7.8-9.9,7.8c-5.5,0-9.9-3.5-9.9-7.8h-3.4
	C65.7,114.4,71.7,119,79,119z"/>
<circle class="st7" cx="69.7" cy="71.1" r="2.6"/>
<circle class="st7" cx="88.6" cy="71.1" r="2.6"/>
<path class="st8" d="M79.7,83.9h-1.1c-1.1,0-1.9-0.9-1.9-1.9v-6.8c0-1.1,0.9-1.9,1.9-1.9h1.1c1.1,0,1.9,0.9,1.9,1.9V82
	C81.7,83.1,80.8,83.9,79.7,83.9z"/>
<path class="st5" d="M93.2,108.7l0.4,39.2h25.3c0,0-4.8-28.3-7.8-31.1c-3.1-2.8-4.4-4.4-9.4-5.8C96.7,109.6,93.2,108.7,93.2,108.7z"
	/>
<path class="st5" d="M65.4,108.7L65,147.9H39.7c0,0,4.8-28.3,7.8-31.1c3.1-2.8,4.4-4.4,9.4-5.8C61.9,109.6,65.4,108.7,65.4,108.7z"
	/>
<path class="st4" d="M78.9,97.9c3.1,0,5.6-1.3,5.6-2.9H73.3C73.3,96.6,75.8,97.9,78.9,97.9z"/>
</svg>
