<?xml version="1.0" encoding="utf-8"?>
<!-- Generator: Adobe Illustrator 22.1.0, SVG Export Plug-In . SVG Version: 6.00 Build 0)  -->
<svg version="1.1" id="Layer_1" xmlns="http://www.w3.org/2000/svg" xmlns:xlink="http://www.w3.org/1999/xlink" x="0px" y="0px"
	 viewBox="0 0 156 231" style="enable-background:new 0 0 156 231;" xml:space="preserve">
<style type="text/css">
	.st0{fill:#F03A47;}
	.st1{fill:#461811;}
	.st2{fill:#E9C7AC;}
	.st3{fill:#F1D6BB;}
	.st4{fill:#FFFFFF;}
	.st5{fill:#FFC400;}
	.st6{fill:#0579B2;}
	.st7{fill:#010002;}
	.st8{fill:#F9BFA6;}
	.st9{fill:#14A799;}
	.st10{fill:#C0C3C5;}
	.st11{fill:#4CD5BB;}
	.st12{fill:#D8A68B;}
	.st13{fill:#8A5F3C;}
	.st14{fill:#B8C6CF;}
	.st15{fill:#00CCB0;}
	.st16{fill:#E5E6E7;}
	.st17{fill:#C9D0D9;stroke:#010002;stroke-width:3;stroke-miterlimit:10;}
	.st18{fill:none;stroke:#010002;stroke-width:3;stroke-miterlimit:10;}
</style>
<rect x="69.1" y="99.5" class="st12" width="19.9" height="21.8"/>
<path class="st3" d="M78.2,37.1c9.7,0,24.9,5.5,24.9,31.2c0,14.9-4.8,24.6-7,27.3c-1.9,2.5-12.9,7.8-18,7.8
	C78.2,77.3,78.2,37.1,78.2,37.1z"/>
<path class="st3" d="M107.9,74.4c0.4-4.1-1.5-7.8-4.4-8.1c-2.8-0.4-5.5,2.6-5.9,6.7c-0.4,4.1,1.5,7.8,4.4,8.1
	C104.9,81.6,107.5,78.5,107.9,74.4z"/>
<path class="st3" d="M79,37.1c-9.7,0-24.9,5.5-24.9,31.2c0,14.9,4.8,24.6,7,27.3c1.9,2.5,12.9,7.8,18,7.8C79,77.3,79,37.1,79,37.1z"
	/>
<path class="st3" d="M49.3,74.4c-0.4-4.1,1.5-7.8,4.4-8.1c2.8-0.4,5.5,2.6,5.9,6.7c0.4,4.1-1.5,7.8-4.4,8.1
	C52.3,81.6,49.7,78.5,49.3,74.4z"/>
<path class="st13" d="M57.5,75.7h1.7c0,0-1-6.7,2-8.9c0-3.4,0-4.3,0-4.3s-1.2-0.1-1.2-5.2c0-5.1,6.1-8.7,19.1-8.7
	c0-7.3,0-15.6,0-15.6s-25.7,2.8-25.7,21.4c0,7.7,0,12.8,0,12.8s1.9-0.3,3.2,0.8C58.1,69.1,57.5,75.7,57.5,75.7z"/>
<path class="st13" d="M100.5,75.7h-1.7c0,0,1-6.7-2-8.9c0-3.4,0-4.3,0-4.3s1.2-0.1,1.2-5.2c0-5.1-6.1-8.7-19.1-8.7
	c0-7.3,0-15.6,0-15.6s25.7,2.8,25.7,21.4c0,7.7,0,12.8,0,12.8s-1.9-0.3-3.2,0.8C99.9,69.1,100.5,75.7,100.5,75.7z"/>
<g>
	<path class="st13" d="M102,45.7c-4-16.3-28.2-29.2-45.2-3.5c-1.1,5.1,3.7,7.4,3.7,7.4s3.2-7.4,17.7-4c7.3-1.6,14.3-2.8,17.6,3.9
			C99.1,56.2,102,45.7,102,45.7z"/>
</g>
<path class="st13" d="M93.3,93.5c-5,0-8.6-4.1-14.3-4.1c-5.7,0-9.3,4.1-14.3,4.1c-5.5,0-8.3-9.1-9.4-12.4c1.4,9.5,4.1,15.4,5.7,17.5
	c1.9,2.5,12.9,7.8,18,7.8h0l0,0c5.1,0,16-5.3,18-7.8c1.6-2.1,3.6-7.9,5-17.4C101,84.5,98.8,93.5,93.3,93.5z"/>
<path class="st15" d="M91.5,113.9c0,0,18.9,2.8,21.7,5.7c2.4,2.5,7.5,26.8,8.7,32.1c-33.2,0-42.7,0-42.7,0v-36.8L91.5,113.9z"/>
<path class="st15" d="M66.8,113.9c0,0-18.9,2.8-21.7,5.7c-2.4,2.5-7.5,26.8-8.7,32.1c33.2,0,42.7,0,42.7,0v-36.8L66.8,113.9z"/>
<polyline class="st14" points="91.8,113.4 79.2,114.9 66.6,113.4 79.2,151.7 "/>
<polygon class="st0" points="77.9,118.6 75.4,144.6 79.2,151.7 83,144.6 80.5,118.6 "/>
<path class="st6" d="M70.1,129.9l-10-14.8c2.7-1,5.7-1.7,8.8-2.2l10.3,38.9L64.7,131L70.1,129.9z"/>
<path class="st6" d="M88.3,129.9l10-14.8c-2.7-1-5.7-1.7-8.8-2.2l-10.3,38.9L93.6,131L88.3,129.9z"/>
<path class="st0" d="M82.6,118.4l-3.4,3.4l-3.4-3.4l3.4-3.4L82.6,118.4z"/>
<polygon class="st4" points="79.2,114.9 69.1,110.9 66.6,113.4 71.6,124.6 "/>
<polygon class="st4" points="79.2,114.9 89.3,110.9 91.8,113.4 86.7,124.6 "/>
<circle class="st7" cx="69.7" cy="71.1" r="2.6"/>
<circle class="st7" cx="88.6" cy="71.1" r="2.6"/>
<path class="st8" d="M79.7,83.9h-1.1c-1.1,0-1.9-0.9-1.9-1.9v-6.8c0-1.1,0.9-1.9,1.9-1.9h1.1c1.1,0,1.9,0.9,1.9,1.9V82
	C81.6,83.1,80.7,83.9,79.7,83.9z"/>
<path class="st4" d="M79.3,97.9c3.1,0,5.6-1.3,5.6-2.9H73.7C73.7,96.6,76.2,97.9,79.3,97.9z"/>
</svg>
