<svg id="Layer_1" data-name="Layer 1" xmlns="http://www.w3.org/2000/svg" viewBox="0 0 155.7 230.6"><defs><style>.cls-1{fill:#461811;}.cls-2{fill:#e9c7ac;}.cls-3{fill:#4cd5bb;}.cls-4{fill:#f1d6bb;}.cls-5{fill:#fff;}.cls-6{fill:#010002;}.cls-7{fill:#f9bfa6;}</style></defs><title>Artboard 1 copy</title><path class="cls-1" d="M82.46,38.39c8.93-.49,21,4.75,25.66,14.45s5.7,17.64,2.67,31.63c-4.06,18.7-1.86,41.14-1.86,41.14l-53.6,1.3s-2.27-71.14,5.85-78.13S74.67,38.81,82.46,38.39Z"/><polygon class="cls-2" points="89.15 125.91 79.08 154.16 69.26 125.91 69.26 104.09 89.15 104.09 89.15 125.91"/><path class="cls-2" d="M79.08,154.16V127s-7.42-1.84-9.06-7.85a20.9,20.9,0,0,1-.76-5.21S53,119.41,49.41,125.07c-3,9-3.84,29.09-3.84,29.09Z"/><path class="cls-2" d="M79.08,154.16V127s7.42-1.84,9.06-7.85a21.48,21.48,0,0,0,.76-5.21s16.23,5.48,19.85,11.14c3,9,3.84,29.09,3.84,29.09Z"/><path class="cls-3" d="M101.45,154.3c0-5.33-2.82-26.07-3.28-29.41l-.91-7.71-1.84-.82,1,9.35c-15.64,11.62-29.82,3.6-34.53.24L63,116.36l-1.84.82-.88,7.48h0l-.45,3.8,0,.06C58.57,140.77,57,154.14,57,154.14Z"/><path class="cls-4" d="M79.2,43.63c-9.66,0-24.93,5.49-24.93,31.23,0,14.85,5.79,21.86,7.9,24.55,1.94,2.48,11.91,10.48,17,10.48Z"/><path class="cls-4" d="M49.46,81C49,76.88,51,73.23,53.84,72.84s5.49,2.63,5.92,6.74-1.54,7.76-4.38,8.15S49.89,85.1,49.46,81Z"/><path class="cls-4" d="M79.12,43.63c9.66,0,24.94,5.49,24.94,31.23,0,14.85-5.79,21.86-7.9,24.55-1.94,2.48-11.91,10.48-17,10.48Z"/><path class="cls-4" d="M108.94,81c.43-4.11-1.53-7.76-4.37-8.15s-5.49,2.63-5.92,6.74,1.54,7.76,4.38,8.15S108.52,85.1,108.94,81Z"/><path class="cls-5" d="M79.2,100.83c3.77,0,6.82-2.31,6.82-5.16H72.39C72.39,98.52,75.44,100.83,79.2,100.83Z"/><circle class="cls-6" cx="69.62" cy="76.99" r="2.58"/><circle class="cls-6" cx="88.53" cy="76.99" r="2.58"/><rect class="cls-7" x="76.58" y="79.1" width="4.99" height="10.69" rx="1.94"/><ellipse class="cls-1" cx="91.11" cy="52.95" rx="14.27" ry="24.86" transform="translate(-9.74 83.52) rotate(-47.03)"/><path class="cls-3" d="M97.26,117.18s9.88,4.44,11.49,7.89,2.5,13.67,2.5,13.67l-11.15,1.62Z"/><path class="cls-3" d="M61.06,117.18s-9.87,4.44-11.49,7.89-2.83,14-2.83,14l11.87,1.73Z"/><path class="cls-1" d="M80.23,39s-.67,21.4-18.92,39.19c-4.7,4.57-4.24,18-4,25.16.24,6.13.62,13.16-.71,16.53-4.67,11.86-12.06,8-12.06,8s4.52-2.87,4.07-12.81c-.53-11.65-3.45-17.5-4.12-31.51-1.06-22.17,5.38-40.21,16.82-46S80.23,39,80.23,39Z"/></svg>