<svg id="Layer_1" data-name="Layer 1" xmlns="http://www.w3.org/2000/svg" viewBox="0 0 100.76 132.17"><defs><style>.cls-1{fill:#5b5b5b;}.cls-2{fill:#e9c7ac;}.cls-3{fill:#f1d6bb;}.cls-4{fill:#fff;}.cls-5{fill:#4cd5bb;}.cls-6{fill:#8a5f3c;}.cls-7{fill:#c9d0d9;}.cls-8{fill:#010002;}.cls-9{fill:#f9bfa6;}.cls-10{fill:#269d86;}</style></defs><path class="cls-1" d="M79.35,66.44c0,16.09-13,7.74-29.15,7.74h0c-16.1,0-29.15,8.35-29.15-7.74V40.09A29.15,29.15,0,0,1,50.2,10.94h0A29.15,29.15,0,0,1,79.35,40.09Z"/><path class="cls-1" d="M80.06,40.34A29.73,29.73,0,1,0,50.33,70.07,29.74,29.74,0,0,0,80.06,40.34Z"/><polygon class="cls-2" points="60.27 104 50.2 132.26 40.38 104 40.38 82.19 60.27 82.19 60.27 104"/><path class="cls-3" d="M50.33,21.73c-9.66,0-24.94,5.49-24.94,31.23,0,14.85,5.79,21.86,7.9,24.55C35.24,80,45.21,88,50.33,88Z"/><path class="cls-3" d="M20.59,59.09C20.16,55,22.12,51.33,25,50.94s5.49,2.63,5.92,6.74-1.53,7.76-4.38,8.15S21,63.2,20.59,59.09Z"/><path class="cls-3" d="M50.25,21.73c9.66,0,24.93,5.49,24.93,31.23,0,14.85-5.79,21.86-7.9,24.55C65.34,80,55.37,88,50.25,88Z"/><path class="cls-3" d="M80.07,59.09c.42-4.11-1.54-7.76-4.38-8.15s-5.49,2.63-5.92,6.74,1.54,7.76,4.38,8.15S79.64,63.2,80.07,59.09Z"/><path class="cls-2" d="M50.2,132.26V105.09s-7.42-1.84-9.06-7.85A21.48,21.48,0,0,1,40.38,92s-16.23,5.48-19.85,11.14c-3,9-3.84,29.09-3.84,29.09Z"/><path class="cls-2" d="M50.2,132.26V105.09s7.42-1.84,9.06-7.85A21.48,21.48,0,0,0,60,92s16.23,5.48,19.85,11.14c3,9,3.84,29.09,3.84,29.09Z"/><path class="cls-4" d="M50.33,78.93c3.76,0,6.81-2.31,6.81-5.16H43.51C43.51,76.62,46.56,78.93,50.33,78.93Z"/><path class="cls-1" d="M48.92,14.33c-17.65,0-23,15.46-23,22.58-6.4,8.9.57,16.86,5.51,19.66V52.19c0-5.75,5.47-11.08,13.69-10.19,7.36.79,12-3.37,15.92-10.45C65.87,22.08,59.83,14.33,48.92,14.33Z"/><path class="cls-1" d="M60.27,28.64s4.13,16.75,15.42,22.3c2-15,3.2-11.88,0-19.8S60.27,17.32,60.27,17.32Z"/><path class="cls-5" d="M50.2,132.26V109.41L40.38,92s-16.23,5.48-19.85,11.14c-3,9-3.84,29.09-3.84,29.09Z"/><path class="cls-5" d="M50.2,132.26V109.41L60,92s16.23,5.48,19.85,11.14c3,9,3.84,29.09,3.84,29.09Z"/><circle class="cls-6" cx="40.75" cy="54.46" r="2.58"/><circle class="cls-6" cx="59.65" cy="54.46" r="2.58"/><circle class="cls-7" cx="38.17" cy="53.28" r="8.17"/><path class="cls-8" d="M38.17,62.94a9.67,9.67,0,1,1,9.66-9.66A9.68,9.68,0,0,1,38.17,62.94Zm0-16.33a6.67,6.67,0,1,0,6.66,6.67A6.67,6.67,0,0,0,38.17,46.61Z"/><circle class="cls-7" cx="62.54" cy="53.28" r="8.17"/><path class="cls-8" d="M62.54,62.94a9.67,9.67,0,1,1,9.66-9.66A9.68,9.68,0,0,1,62.54,62.94Zm0-16.33a6.67,6.67,0,1,0,6.66,6.67A6.67,6.67,0,0,0,62.54,46.61Z"/><rect class="cls-8" x="46.53" y="51.78" width="8.17" height="3"/><rect class="cls-8" x="35.49" y="54.33" width="5.36" height="3"/><rect class="cls-8" x="59.86" y="54.33" width="5.36" height="3"/><rect class="cls-9" x="47.86" y="56.57" width="4.99" height="10.69" rx="1.94"/><path class="cls-10" d="M35.6,93.52v39H16.76S17.3,108.76,20.6,103,35.6,93.52,35.6,93.52Z"/><path class="cls-10" d="M64.8,93.52v39H83.64S83.1,108.76,79.8,103,64.8,93.52,64.8,93.52Z"/><polygon class="cls-4" points="50.2 109.41 40.38 92.03 31.36 94.92 39.04 112.14 50.2 109.41"/><polygon class="cls-4" points="50.2 109.41 60.02 92.03 69.05 94.92 61.36 112.14 50.2 109.41"/></svg>