<?xml version="1.0" encoding="utf-8"?>
<!-- Generator: Adobe Illustrator 22.1.0, SVG Export Plug-In . SVG Version: 6.00 Build 0)  -->
<svg version="1.1" id="Layer_1" xmlns="http://www.w3.org/2000/svg" xmlns:xlink="http://www.w3.org/1999/xlink" x="0px" y="0px"
	 viewBox="0 0 156 231" style="enable-background:new 0 0 156 231;" xml:space="preserve">
<style type="text/css">
	.st0{fill:#F03A47;}
	.st1{fill:#461811;}
	.st2{fill:#E9C7AC;}
	.st3{fill:#F1D6BB;}
	.st4{fill:#FFFFFF;}
	.st5{fill:#FFC400;}
	.st6{fill:#0579B2;}
	.st7{fill:#010002;}
	.st8{fill:#F9BFA6;}
	.st9{fill:#14A799;}
	.st10{fill:#C0C3C5;}
	.st11{fill:#4CD5BB;}
	.st12{fill:#D8A68B;}
	.st13{fill:#8A5F3C;}
	.st14{fill:#B8C6CF;}
	.st15{fill:#00CCB0;}
	.st16{fill:#E5E6E7;}
	.st17{fill:#C9D0D9;stroke:#010002;stroke-width:3;stroke-miterlimit:10;}
	.st18{fill:none;stroke:#010002;stroke-width:3;stroke-miterlimit:10;}
</style>
<path class="st10" d="M53,74.8c0,11.4-6.2,11.7-5.8,19.2c0.5,8.3,7,8.4,7,14.1c0,5.7-6,12.2-0.7,18.3c23.4,0,25.6,0,25.6,0V56.8
	L53,74.8z"/>
<path class="st10" d="M105.3,74.8c0,11.4,6.2,11.7,5.8,19.2c-0.5,8.3-7,8.4-7,14.1c0,5.7,6,12.2,0.7,18.3c-23.4,0-25.6,0-25.6,0
	V56.8L105.3,74.8z"/>
<path class="st10" d="M109,63c0-16.4-13.3-29.7-29.7-29.7c-16.4,0-29.7,13.3-29.7,29.7c0,16.4,13.3,29.7,29.7,29.7
	C95.7,92.7,109,79.4,109,63z"/>
<polygon class="st2" points="89.2,126.7 79.2,154.9 69.3,126.7 69.3,104.9 89.2,104.9 "/>
<path class="st3" d="M79.3,44.4c-9.7,0-24.9,5.5-24.9,31.2c0,14.9,5.8,21.9,7.9,24.6c1.9,2.5,11.9,10.5,17,10.5
	C79.3,84.7,79.3,44.4,79.3,44.4z"/>
<path class="st3" d="M49.5,81.8c-0.4-4.1,1.5-7.8,4.4-8.1c2.8-0.4,5.5,2.6,5.9,6.7c0.4,4.1-1.5,7.8-4.4,8.1
	C52.6,88.9,50,85.9,49.5,81.8z"/>
<path class="st3" d="M79.2,44.4c9.7,0,24.9,5.5,24.9,31.2c0,14.9-5.8,21.9-7.9,24.6c-1.9,2.5-11.9,10.5-17,10.5
	C79.2,84.7,79.2,44.4,79.2,44.4z"/>
<path class="st3" d="M109,81.8c0.4-4.1-1.5-7.8-4.4-8.1c-2.8-0.4-5.5,2.6-5.9,6.7c-0.4,4.1,1.5,7.8,4.4,8.1
	C105.9,88.9,108.6,85.9,109,81.8z"/>
<path class="st2" d="M79.2,154.9v-27.2c0,0-7.4-1.8-9.1-7.9c-0.8-2.9-0.8-5.2-0.8-5.2s-16.2,5.5-19.9,11.1c-3,9-3.8,29.1-3.8,29.1
	H79.2z"/>
<path class="st2" d="M79.2,154.9v-27.2c0,0,7.4-1.8,9.1-7.9c0.8-2.9,0.8-5.2,0.8-5.2s16.2,5.5,19.9,11.1c3,9,3.8,29.1,3.8,29.1H79.2
	z"/>
<path class="st4" d="M79.3,101.6c3.8,0,6.8-2.3,6.8-5.2H72.5C72.5,99.3,75.5,101.6,79.3,101.6z"/>
<path class="st10" d="M77.9,37c-17.7,0-23,15.5-23,22.6c-6.4,8.9,0.6,16.9,5.5,19.7c0-1.7,0-2.3,0-4.4c0-5.8,5.5-11.1,13.7-10.2
	c7.4,0.8,12-3.4,15.9-10.4C94.8,44.7,88.8,37,77.9,37z"/>
<path class="st10" d="M89.2,51.3c0,0,4.1,16.7,15.4,22.3c2-15.1,3.2-11.9,0-19.8C101.4,45.9,89.2,40,89.2,40V51.3z"/>
<path class="st6" d="M108.8,126.2c-3-4.7-14.8-9.3-18.6-10.7c-0.2,5.9-5.1,10.6-11,10.6c-6,0-10.8-4.7-11-10.6
	c-3.8,1.4-15.6,6-18.6,10.7c-3,9-3.8,29.1-3.8,29.1h33.5h33.5C112.7,155.2,111.8,135.1,108.8,126.2z"/>
<path class="st6" d="M112.7,155.2c0,0-0.8-20.1-3.8-29.1c-3-4.7-14.8-9.3-18.6-10.7c-0.2,5.9-5.1,10.6-11,10.6v29.2H112.7z"/>
<path class="st4" d="M64.5,116.8c1.1,7.1,7.3,12.6,14.7,12.6c7.4,0,13.6-5.4,14.7-12.6c-1.5-0.6-2.8-1.1-3.6-1.4
	c-0.2,5.9-5.1,10.6-11,10.6c-6,0-10.8-4.7-11-10.6C67.2,115.8,66,116.2,64.5,116.8z"/>
<circle class="st7" cx="69.4" cy="77.9" r="2.6"/>
<circle class="st7" cx="88.3" cy="77.9" r="2.6"/>
<path class="st8" d="M79.7,89.9h-1.1c-1.1,0-1.9-0.9-1.9-1.9v-6.8c0-1.1,0.9-1.9,1.9-1.9h1.1c1.1,0,1.9,0.9,1.9,1.9v6.8
	C81.6,89,80.8,89.9,79.7,89.9z"/>
<circle class="st5" cx="59.7" cy="134" r="4.8"/>
<circle class="st0" cx="71.7" cy="146" r="4.8"/>
<circle class="st11" cx="86.6" cy="134" r="4.8"/>
<circle class="st5" cx="98.6" cy="146" r="4.8"/>
</svg>
