<svg id="Layer_1" data-name="Layer 1" xmlns="http://www.w3.org/2000/svg" viewBox="0 0 100.76 132.17"><defs><style>.cls-1{fill:#461811;}.cls-2{fill:#96694b;}.cls-3{fill:#a3785a;}.cls-4{fill:#e9c7ac;}.cls-5{fill:#fff;}.cls-6{fill:#4cd5bb;}.cls-7{fill:#010002;}.cls-8{fill:#d37f62;}</style></defs><path class="cls-1" d="M24.47,53.41c0,11.38-6.25,11.68-5.8,19.21.49,8.35,7,8.36,7,14.1s-6,12.17-.69,18.34H50.65V35.48Z"/><path class="cls-1" d="M76.8,53.41c0,11.38,6.25,11.68,5.8,19.21-.49,8.35-7,8.36-7,14.1s6,12.17.69,18.34H50.62V35.48Z"/><circle class="cls-1" cx="50.51" cy="40.16" r="29.73" transform="translate(-13.6 47.48) rotate(-45)"/><polygon class="cls-2" points="60.45 103.83 50.38 132.08 40.56 103.83 40.56 82.01 60.45 82.01 60.45 103.83"/><path class="cls-3" d="M50.51,21.55c-9.66,0-24.94,5.5-24.94,31.23,0,14.85,5.79,21.86,7.9,24.55,2,2.48,11.92,10.48,17,10.48Z"/><path class="cls-3" d="M20.77,58.91c-.43-4.11,1.53-7.76,4.37-8.15s5.49,2.63,5.92,6.74-1.53,7.76-4.37,8.15S21.19,63,20.77,58.91Z"/><path class="cls-3" d="M50.43,21.55c9.66,0,24.93,5.5,24.93,31.23,0,14.85-5.79,21.86-7.9,24.55-1.94,2.48-11.91,10.48-17,10.48Z"/><path class="cls-3" d="M79.65,59c.82-4.16-1.8-7.72-5.86-8a8.87,8.87,0,0,0-8.85,7.09c-.83,4.16,1.8,7.72,5.86,8A8.88,8.88,0,0,0,79.65,59Z"/><path class="cls-4" d="M50.38,132.08V104.91s-7.42-1.84-9.06-7.85a21.48,21.48,0,0,1-.76-5.21S24.33,97.33,20.71,103c-3,9-3.84,29.09-3.84,29.09Z"/><path class="cls-4" d="M50.38,132.08V104.91s7.42-1.84,9.06-7.85a20.9,20.9,0,0,0,.76-5.21S76.43,97.33,80.05,103c3,9,3.84,29.09,3.84,29.09Z"/><path class="cls-5" d="M50.51,78.75c3.76,0,6.82-2.31,6.82-5.16H43.69C43.69,76.44,46.74,78.75,50.51,78.75Z"/><path class="cls-1" d="M49.1,14.15c-17.65,0-23,15.46-23,22.58-6.4,8.9.57,16.86,5.51,19.66V52c0-5.75,5.47-11.08,13.69-10.19,7.37.79,12-3.37,15.92-10.45C66.05,21.9,60,14.15,49.1,14.15Z"/><path class="cls-1" d="M60.45,28.82s4.13,17.26,15.42,23c2-15.52,3.2-12.25,0-20.42S60.45,17.14,60.45,17.14Z"/><path class="cls-6" d="M50.38,132.08V96l-9.82-4.1S24.33,97.33,20.71,103c-3,9-3.84,29.09-3.84,29.09Z"/><path class="cls-6" d="M50.38,132.08V96l9.82-4.1S76.43,97.33,80.05,103c3,9,3.84,29.09,3.84,29.09Z"/><polygon class="cls-5" points="50.38 95.91 40.28 91.85 37.79 94.38 42.82 105.52 50.38 95.91"/><polygon class="cls-5" points="50.38 95.91 60.48 91.85 62.97 94.38 57.94 105.52 50.38 95.91"/><circle class="cls-7" cx="40.93" cy="54.91" r="2.58"/><circle class="cls-7" cx="59.83" cy="54.91" r="2.58"/><rect class="cls-8" x="48" y="57.02" width="4.99" height="10.69" rx="1.94"/></svg>