<svg id="Layer_1" data-name="Layer 1" xmlns="http://www.w3.org/2000/svg" viewBox="0 0 100.76 132.17"><defs><style>.cls-1{fill:#96694b;}.cls-2{fill:#a3785a;}.cls-3{fill:#461811;}.cls-4{fill:#4bb4e9;}.cls-5{fill:#b8c6cf;}.cls-6{fill:#3b9bcb;}.cls-7{fill:#fff;}.cls-8{fill:#010002;}.cls-9{fill:#d37f62;}</style></defs><rect class="cls-1" x="40.66" y="79.97" width="19.89" height="21.81"/><path class="cls-2" d="M49.81,17.55c9.66,0,24.93,5.5,24.93,31.23,0,14.85-4.84,24.59-6.95,27.28-2,2.48-12.86,7.75-18,7.75Z"/><path class="cls-2" d="M79.55,54.91C80,50.8,78,47.15,75.17,46.76s-5.49,2.63-5.92,6.74,1.54,7.76,4.38,8.15S79.12,59,79.55,54.91Z"/><path class="cls-2" d="M50.61,17.55c-9.66,0-24.94,5.5-24.94,31.23,0,14.85,4.84,24.59,7,27.28,1.94,2.48,12.85,7.75,18,7.75Z"/><path class="cls-2" d="M20.87,54.91c-.43-4.11,1.53-7.76,4.37-8.15s5.49,2.63,5.92,6.74-1.53,7.76-4.38,8.15S21.29,59,20.87,54.91Z"/><path class="cls-3" d="M29.11,56.18h1.73s-1.05-6.7,2-8.86V43s-1.19-.14-1.19-5.24S37.75,29,50.73,29V13.39s-25.66,2.77-25.66,21.4v12.8a4.31,4.31,0,0,1,3.21.8C29.72,49.6,29.11,56.18,29.11,56.18Z"/><path class="cls-3" d="M72.1,56.18H70.38s1-6.7-2-8.86V43s1.19-.14,1.19-5.24S63.47,29,50.48,29V13.39s25.67,2.77,25.67,21.4v12.8a4.3,4.3,0,0,0-3.21.8C71.49,49.6,72.1,56.18,72.1,56.18Z"/><path class="cls-3" d="M73.64,26.15C69.67,9.82,45.46-3,28.44,22.63c-1.09,5.05,3.66,7.42,3.66,7.42s3.18-7.42,17.74-4c7.25-1.59,14.32-2.77,17.58,3.93S73.64,26.15,73.64,26.15Z"/><path class="cls-3" d="M64.91,74c-5,0-8.57-4.05-14.29-4.05S41.32,74,36.33,74C30.85,74,28,64.93,27,61.62,28.37,71.14,31,77,32.64,79.09c1.94,2.48,12.85,7.76,18,7.76h0c5.12,0,16-5.28,18-7.76,1.62-2.07,3.62-7.92,5-17.44C72.59,65,70.39,74,64.91,74Z"/><path class="cls-4" d="M63.15,94.4s18.91,2.77,21.71,5.68c2.43,2.53,7.48,26.8,8.65,32.12H50.79V95.43Z"/><path class="cls-4" d="M38.43,94.4s-18.92,2.77-21.71,5.68c-2.43,2.53-7.49,26.8-8.66,32.12H50.79V95.43Z"/><polyline class="cls-5" points="63.38 93.89 50.79 95.43 38.2 93.89 50.79 132.2"/><polygon class="cls-6" points="49.5 99.13 46.99 125.04 50.79 132.2 54.59 125.04 52.07 99.13 49.5 99.13"/><path class="cls-6" d="M41.71,110.43l-10-14.85a48.74,48.74,0,0,1,8.77-2.24L50.79,132.2,36.33,111.5Z"/><path class="cls-6" d="M59.86,110.43l10-14.85a49.06,49.06,0,0,0-8.78-2.24L50.79,132.2l14.46-20.7Z"/><path class="cls-6" d="M54.18,98.91l-3.39,3.4-3.4-3.4,3.4-3.39Z"/><polygon class="cls-7" points="50.79 95.43 40.69 91.37 38.2 93.89 43.22 105.04 50.79 95.43"/><polygon class="cls-7" points="50.79 95.43 60.89 91.37 63.38 93.89 58.35 105.04 50.79 95.43"/><circle class="cls-8" cx="41.26" cy="51.63" r="2.58"/><circle class="cls-8" cx="60.17" cy="51.63" r="2.58"/><rect class="cls-9" x="48.22" y="53.74" width="4.99" height="10.69" rx="1.94"/><path class="cls-7" d="M50.88,78.34c3.08,0,5.58-1.3,5.58-2.9H45.31C45.31,77,47.8,78.34,50.88,78.34Z"/></svg>