<?xml version="1.0" encoding="utf-8"?>
<!-- Generator: Adobe Illustrator 22.1.0, SVG Export Plug-In . SVG Version: 6.00 Build 0)  -->
<svg version="1.1" id="Layer_1" xmlns="http://www.w3.org/2000/svg" xmlns:xlink="http://www.w3.org/1999/xlink" x="0px" y="0px"
	 viewBox="0 0 155.7 230.6" style="enable-background:new 0 0 155.7 230.6;" xml:space="preserve">
<style type="text/css">
	.st0{fill:#F03A47;}
	.st1{fill:#461811;}
	.st2{fill:#E9C7AC;}
	.st3{fill:#F1D6BB;}
	.st4{fill:#FFFFFF;}
	.st5{fill:#FFC400;}
	.st6{fill:#0579B2;}
	.st7{fill:#010002;}
	.st8{fill:#F9BFA6;}
	.st9{fill:#14A799;}
	.st10{fill:#C0C3C5;}
	.st11{fill:#4CD5BB;}
	.st12{fill:#D8A68B;}
	.st13{fill:#8A5F3C;}
	.st14{fill:#B8C6CF;}
	.st15{fill:#00CCB0;}
	.st16{fill:#E5E6E7;}
	.st17{fill:#C9D0D9;stroke:#010002;stroke-width:3;stroke-miterlimit:10;}
	.st18{fill:none;stroke:#010002;stroke-width:3;stroke-miterlimit:10;}
</style>
<path class="st1" d="M54.1,75.7c0,11.4-6.2,11.7-5.8,19.2c0.5,8.3,7,8.4,7,14.1c0,5.7-6,12.2-0.7,18.3c23.4,0,25.6,0,25.6,0V57.8
	L54.1,75.7z"/>
<path class="st1" d="M106.4,75.7c0,11.4,6.2,11.7,5.8,19.2c-0.5,8.3-7,8.4-7,14.1c0,5.7,6,12.2,0.7,18.3c-23.4,0-25.6,0-25.6,0V57.8
	L106.4,75.7z"/>
<ellipse transform="matrix(0.7071 -0.7071 0.7071 0.7071 -20.6897 74.9355)" class="st1" cx="80.1" cy="62.4" rx="29.7" ry="29.7"/>
<polygon class="st2" points="90.1,126.1 80,154.4 70.2,126.1 70.2,104.3 90.1,104.3 "/>
<path class="st3" d="M80.1,43.8c-9.7,0-24.9,5.5-24.9,31.2c0,14.9,5.8,21.9,7.9,24.6c1.9,2.5,11.9,10.5,17,10.5
	C80.1,84.1,80.1,43.8,80.1,43.8z"/>
<path class="st3" d="M50.4,81.2c-0.4-4.1,1.5-7.8,4.4-8.1c2.8-0.4,5.5,2.6,5.9,6.7c0.4,4.1-1.5,7.8-4.4,8.1
	C53.4,88.3,50.8,85.3,50.4,81.2z"/>
<path class="st3" d="M80,43.8c9.7,0,24.9,5.5,24.9,31.2c0,14.9-5.8,21.9-7.9,24.6c-1.9,2.5-11.9,10.5-17,10.5
	C80,84.1,80,43.8,80,43.8z"/>
<path class="st3" d="M109.8,81.2c0.4-4.1-1.5-7.8-4.4-8.1c-2.8-0.4-5.5,2.6-5.9,6.7c-0.4,4.1,1.5,7.8,4.4,8.1
	C106.8,88.3,109.4,85.3,109.8,81.2z"/>
<path class="st2" d="M80,154.4v-27.2c0,0-7.4-1.8-9.1-7.9c-0.8-2.9-0.8-5.2-0.8-5.2s-16.2,5.5-19.9,11.1c-3,9-3.8,29.1-3.8,29.1H80z
	"/>
<path class="st2" d="M80,154.4v-27.2c0,0,7.4-1.8,9.1-7.9c0.8-2.9,0.8-5.2,0.8-5.2s16.2,5.5,19.9,11.1c3,9,3.8,29.1,3.8,29.1H80z"/>
<path class="st4" d="M80.1,101c3.8,0,6.8-2.3,6.8-5.2H73.3C73.3,98.7,76.3,101,80.1,101z"/>
	<g>
		<path class="st1" d="M78.7,36.4c-17.6,0-23,15.5-23,22.6c-6.4,8.9,0.6,16.9,5.5,19.7c0-1.7,0-2.3,0-4.4c0-5.8,5.5-11.1,13.7-10.2
			c7.4,0.8,12-3.4,15.9-10.4C95.6,44.2,89.6,36.4,78.7,36.4z"/>
	</g>
	<g>
		<path class="st1" d="M90.1,50.8c0,0,4.1,16.7,15.4,22.3c2-15.1,3.2-11.9,0-19.8c-3.2-7.9-15.4-13.8-15.4-13.8V50.8z"/>
	</g>
<path class="st15" d="M80.2,143.6c0,0-7.1-17.9-9.8-29.6c-2.7,1-4.9,1.7-6.6,2.6c-8,16.9-8.4,37.7-8.4,37.7h24.8V143.6z"/>
<path class="st15" d="M79.5,143.6c0,0,7.1-17.9,9.8-29.6c2.7,1,4.9,1.7,6.6,2.6c8,16.9,8.4,37.7,8.4,37.7H79.5V143.6z"/>
<circle class="st7" cx="70.5" cy="77.2" r="2.6"/>
<circle class="st7" cx="89.4" cy="77.2" r="2.6"/>
<path class="st8" d="M80.5,90h-1.1c-1.1,0-1.9-0.9-1.9-1.9v-6.8c0-1.1,0.9-1.9,1.9-1.9h1.1c1.1,0,1.9,0.9,1.9,1.9v6.8
	C82.5,89.1,81.6,90,80.5,90z"/>
</svg>
