<svg id="Layer_1" data-name="Layer 1" xmlns="http://www.w3.org/2000/svg" viewBox="0 0 155.7 230.6"><defs><style>.cls-1{fill:#461811;}.cls-2{fill:#e9c7ac;}.cls-3{fill:#f1d6bb;}.cls-4{fill:#fff;}.cls-5{fill:#010002;}.cls-6{fill:#f9bfa6;}.cls-7{fill:#4cd5bb;}</style></defs><title>Artboard 1 copy 3</title><path class="cls-1" d="M51.92,75.59c0,11.38-6.25,11.68-5.8,19.22.49,8.35,7,8.36,7,14.1s-6,12.18-.68,18.36H78.12V57.64Z"/><circle class="cls-1" cx="77.98" cy="62.33" r="29.75" transform="translate(-21.23 73.39) rotate(-45)"/><polygon class="cls-2" points="87.93 126.03 77.85 154.3 68.02 126.03 68.02 104.2 87.93 104.2 87.93 126.03"/><path class="cls-3" d="M78,43.71c-9.67,0-25,5.5-25,31.24,0,14.87,5.79,21.88,7.9,24.57C62.88,102,72.85,110,78,110Z"/><path class="cls-3" d="M48.22,81.09c-.43-4.11,1.53-7.76,4.38-8.15s5.49,2.63,5.92,6.74S57,87.44,54.14,87.83,48.65,85.2,48.22,81.09Z"/><path class="cls-3" d="M77.9,43.71c9.66,0,24.95,5.5,24.95,31.24,0,14.87-5.8,21.88-7.91,24.57C93,102,83,110,77.9,110Z"/><path class="cls-3" d="M107.73,81.09c.43-4.11-1.53-7.76-4.37-8.15s-5.5,2.63-5.93,6.74,1.54,7.76,4.38,8.15S107.31,85.2,107.73,81.09Z"/><path class="cls-2" d="M77.85,154.3V127.11s-7.43-1.84-9.06-7.85a21.23,21.23,0,0,1-.77-5.21s-16.23,5.48-19.86,11.15c-3,9-3.84,29.1-3.84,29.1Z"/><path class="cls-2" d="M77.85,154.3V127.11s7.43-1.84,9.06-7.85a21.23,21.23,0,0,0,.77-5.21s16.23,5.48,19.86,11.15c3,9,3.84,29.1,3.84,29.1Z"/><path class="cls-4" d="M78,100.94c3.76,0,6.82-2.31,6.82-5.17H71.15C71.15,98.63,74.21,100.94,78,100.94Z"/><path class="cls-1" d="M89.92,43.83c-21.3-6.36-31.86,5.37-33.74,11.66-10.07,5.56-3.76,15.11,1.47,19.37L58.81,71c1.51-5.09,9.52-7.83,19.21-4.08,8.67,3.36,15.37,1.35,22-3.49C108.32,56.79,103.08,47.77,89.92,43.83Z"/><circle class="cls-5" cx="68.39" cy="77.09" r="2.58"/><circle class="cls-5" cx="87.3" cy="77.09" r="2.58"/><rect class="cls-6" x="75.35" y="79.2" width="4.99" height="10.69" rx="1.87"/><path class="cls-7" d="M77.85,154.3,78,129.25l10-15.2s16,5.48,19.6,11.15c3,9,3.84,29.1,3.84,29.1Z"/><polygon class="cls-4" points="78.11 129.03 87.94 114.05 93.08 116 82.35 138.15 78.11 129.03"/><path class="cls-7" d="M77.85,154.3,78,129.25l-10-15.2s-16.23,5.48-19.86,11.15c-3,9-3.84,29.1-3.84,29.1Z"/><polygon class="cls-4" points="78.11 129.03 68.02 114.05 62.88 116 73.61 138.15 78.11 129.03"/></svg>