<svg id="Layer_1" data-name="Layer 1" xmlns="http://www.w3.org/2000/svg" viewBox="0 0 100.76 132.17"><defs><style>.cls-1{fill:#c18665;}.cls-2{fill:#c99877;}.cls-3{fill:#474747;}.cls-4{fill:#4bb4e9;}.cls-5{fill:#fff;}.cls-6{fill:#010002;}.cls-7{fill:#d17566;}.cls-8{fill:#3b9bcb;}</style></defs><rect class="cls-1" x="40.3" y="82.18" width="19.89" height="21.81"/><path class="cls-2" d="M50.24,20.16c9.66,0,24.94,5.5,24.94,31.23,0,14.85-4.85,24.59-7,27.28-1.94,2.48-12.85,7.75-18,7.75Z"/><path class="cls-2" d="M80,57.52c.43-4.11-1.53-7.76-4.37-8.15S70.12,52,69.69,56.11s1.53,7.76,4.38,8.15S79.56,61.63,80,57.52Z"/><path class="cls-2" d="M50.37,20.16c-9.71,0-25.06,5.5-25.06,31.23,0,14.85,4.87,24.59,7,27.28,2,2.48,12.92,7.75,18.07,7.75Z"/><path class="cls-2" d="M20.5,57.52c-.42-4.11,1.54-7.76,4.38-8.15S30.37,52,30.8,56.11s-1.54,7.76-4.38,8.15S20.93,61.63,20.5,57.52Z"/><path class="cls-3" d="M28.63,59.57h1.72s-1.05-6.7,2-8.86V46.38s-1.19-.14-1.19-5.24,6.07-8.72,19.05-8.72V16.78s-25.66,2.77-25.66,21.4V51a4.28,4.28,0,0,1,3.21.79C29.23,53,28.63,59.57,28.63,59.57Z"/><path class="cls-3" d="M71.61,59.57H69.89s1-6.7-2-8.86V46.38s1.19-.14,1.19-5.24S63,32.42,50,32.42V16.78s25.66,2.77,25.66,21.4V51a4.28,4.28,0,0,0-3.21.79C71,53,71.61,59.57,71.61,59.57Z"/><path class="cls-3" d="M74.08,31.94c-4-16.33-28.18-29.15-45.2-3.52-1.09,5,3.66,7.42,3.66,7.42s3.18-7.42,17.74-4c7.25-1.58,14.32-2.76,17.58,3.94S74.08,31.94,74.08,31.94Z"/><path class="cls-3" d="M64.23,76.59c-4.87,0-8.35-4.16-13.94-4.16s-9.07,4.16-13.95,4.16c-5.34,0-8.7-9.67-9.71-13.06C28,73.29,31.16,79.67,32.74,81.8c1.9,2.53,12.55,7.94,17.55,7.94h0c5,0,15.65-5.41,17.54-7.94,1.59-2.13,4.75-8.52,6.12-18.28C72.94,66.9,69.58,76.59,64.23,76.59Z"/><path class="cls-4" d="M60.33,93h3.39C70,94.6,77,95.76,81.56,101.09c2.87,3.32,7.85,31.08,7.85,31.08h-39V100.74C55.88,100.74,60.33,97.26,60.33,93Z"/><path class="cls-4" d="M40.43,93H37.05c-6.32,1.63-13.24,2.79-17.85,8.12-2.87,3.32-7.85,31.08-7.85,31.08h39V100.74C44.89,100.74,40.43,97.26,40.43,93Z"/><path class="cls-5" d="M50.31,103.26c7.32,0,13.26-4.61,13.26-10.29h-3.4c0,4.28-4.41,7.76-9.86,7.77S40.45,97.25,40.45,93h-3.4C37.05,98.65,43,103.26,50.31,103.26Z"/><circle class="cls-6" cx="41.15" cy="57.41" r="2.58"/><circle class="cls-6" cx="60.05" cy="57.41" r="2.58"/><rect class="cls-7" x="48.11" y="59.52" width="4.99" height="10.69" rx="1.94"/><rect class="cls-8" x="45.24" y="112.03" width="10.63" height="10.63" transform="translate(97.78 -1.38) rotate(45)"/><rect class="cls-8" x="30.41" y="112.03" width="10.63" height="10.63" transform="translate(93.43 9.11) rotate(45)"/><rect class="cls-8" x="59.62" y="112.03" width="10.63" height="10.63" transform="translate(101.99 -11.55) rotate(45)"/><path class="cls-5" d="M50.24,84.13c3.08,0,5.58-1.3,5.58-2.9H44.67C44.67,82.83,47.16,84.13,50.24,84.13Z"/></svg>