<svg id="Layer_1" data-name="Layer 1" xmlns="http://www.w3.org/2000/svg" viewBox="0 0 155.7 230.6"><defs><style>.cls-1{fill:#e9c7ac;}.cls-2{fill:#f1d6bb;}.cls-3{fill:#fff;}.cls-4{fill:#4bb4e9;}.cls-5{fill:#3b9bcb;}.cls-6{fill:#010002;}.cls-7{fill:#f9bfa6;}.cls-8{fill:#b8c6cf;}.cls-9{fill:#8a5f3c;}</style></defs><title>Artboard 1 copy 6</title><rect class="cls-1" x="68.61" y="101.45" width="19.52" height="21.41"/><path class="cls-2" d="M77.58,43.23c9.48,0,24.47,5.39,24.47,30.64,0,14.58-4.75,24.13-6.82,26.77-1.91,2.43-12.62,7.61-17.65,7.61Z"/><path class="cls-2" d="M106.76,79.89c.42-4-1.5-7.62-4.29-8s-5.39,2.58-5.81,6.61,1.51,7.62,4.3,8S106.35,83.92,106.76,79.89Z"/><path class="cls-2" d="M78.37,43.23c-9.48,0-24.47,5.39-24.47,30.64,0,14.58,4.75,24.13,6.82,26.77,1.91,2.43,12.62,7.61,17.65,7.61Z"/><path class="cls-2" d="M49.18,79.89c-.41-4,1.51-7.62,4.3-8s5.38,2.58,5.8,6.61-1.5,7.62-4.29,8S49.6,83.92,49.18,79.89Z"/><path class="cls-3" d="M78.37,98.72c4.41,0,8-1.45,8-3.25h-16C70.37,97.27,74,98.72,78.37,98.72Z"/><path class="cls-4" d="M65.77,116.71s-17.71,3.21-20.45,6.07c-2.39,2.48-7.35,26.29-8.5,31.52H69.9l-3.28-37.09Z"/><path class="cls-5" d="M61.57,131.86l-3.33-9c2.42-2.13,7.06-5.65,7.53-6.14L69.9,154.3,57.29,135.63Z"/><circle class="cls-6" cx="69.06" cy="78.27" r="2.53"/><circle class="cls-6" cx="87.61" cy="78.27" r="2.53"/><rect class="cls-7" x="75.89" y="80.34" width="4.9" height="10.49" rx="1.94"/><polyline class="cls-8" points="78.12 118.22 78.12 118.22 65.77 116.71 69.9 154.3 78.12 154.3"/><path class="cls-4" d="M89.93,116.71s17.71,3.21,20.45,6.07c2.39,2.48,7.35,26.29,8.5,31.52H85.8l3.28-37.09Z"/><path class="cls-5" d="M94.13,131.86l3.33-9c-2.42-2.13-7.06-5.65-7.53-6.14L85.8,154.3l12.61-18.67Z"/><polyline class="cls-8" points="77.58 118.22 77.58 118.22 89.94 116.71 85.8 154.3 77.58 154.3"/><polygon class="cls-5" points="76.86 121.85 74.39 147.27 78.12 154.3 81.85 147.27 79.38 121.85 76.86 121.85"/><path class="cls-5" d="M81.45,121.63,78.12,125l-3.33-3.34,3.33-3.33Z"/><polygon class="cls-3" points="78.12 118.22 68.21 114.23 65.77 116.71 70.7 127.65 78.12 118.22"/><polygon class="cls-3" points="78.12 118.22 88.03 114.23 89.94 116.71 85.54 127.65 78.12 118.22"/><path class="cls-9" d="M53.26,52.1c-.6,6.08.38,19.65.38,19.65a10,10,0,0,0,2.72.76l.66.19c.76.25,1.86,1.83,1.86,1.83s-.57-10.24.47-16.1c.5-2.84,1.62-4.3,3.39-4.77l-5-8.39S53.86,46,53.26,52.1Z"/><path class="cls-9" d="M89.79,38.46c-9.38-2.14-20.77-.67-26,.76-8.31,2.28-6.08,6.35-6.08,6.35l5,8.08c1.89-.48,4.54.12,8,1.35a26.91,26.91,0,0,0,7.47,1.76h0a5.43,5.43,0,0,0,.8,0h0S81.64,57,87.27,55c6.7-2.4,10.35-2.4,11.38,3.24s.47,15.5.47,15.5,1.1-1.52,1.87-1.76a8.37,8.37,0,0,1,1.09-.29,119.87,119.87,0,0,0,2.25-17.76C104.5,46.22,99.18,40.6,89.79,38.46Z"/></svg>