<svg id="Layer_1" data-name="Layer 1" xmlns="http://www.w3.org/2000/svg" viewBox="0 0 100.76 132.17"><defs><style>.cls-1{fill:#e9c7ac;}.cls-2{fill:#f1d6bb;}.cls-3{fill:#5b5b5b;}.cls-4{fill:#4bb4e9;}.cls-5{fill:#fff;}.cls-6{fill:#010002;}.cls-7{fill:#f9bfa6;}.cls-8{fill:#3b9bcb;}.cls-9{fill:#c9d0d9;}</style></defs><rect class="cls-1" x="39.81" y="83.04" width="19.89" height="21.81"/><path class="cls-2" d="M49,22.17c9.66,0,24.93,5.49,24.93,31.22,0,14.86-4.84,24.59-7,27.28C65,83.15,54.08,88.43,49,88.43Z"/><path class="cls-2" d="M78.7,59.53c.42-4.11-1.54-7.76-4.38-8.15S68.83,54,68.41,58.12s1.53,7.76,4.37,8.15S78.27,63.64,78.7,59.53Z"/><path class="cls-2" d="M49.76,22.17c-9.66,0-24.94,5.49-24.94,31.22,0,14.86,4.85,24.59,7,27.28,1.94,2.48,12.86,7.76,18,7.76Z"/><path class="cls-2" d="M20,59.53c-.43-4.11,1.53-7.76,4.37-8.15s5.49,2.63,5.92,6.74-1.53,7.76-4.37,8.15S20.44,63.64,20,59.53Z"/><path class="cls-3" d="M36.75,27.55s-8.44,10-5.21,19.34c.54,11.13-.54,14.9-4.13,18,.9-10.77-.17-14.36-4.12-13.1C21.67,43.3,25.16,20.58,36.75,27.55Z"/><path class="cls-3" d="M62.7,27.55s8.44,10,5.21,19.34c-.54,11.13.53,14.9,4.12,18-.89-10.77.18-14.36,4.13-13.1C77.78,43.3,74.29,20.58,62.7,27.55Z"/><path class="cls-3" d="M73.59,31.94c-4-16.33-28.18-29.15-45.2-3.52-1.09,5,3.67,7.42,3.67,7.42s3.17-7.42,17.73-4c7.25-1.58,14.32-2.76,17.58,3.94S73.59,31.94,73.59,31.94Z"/><path class="cls-3" d="M63.08,77.09c-4.86,0-8.35-4-13.93-4s-9.06,4-13.93,4c-5.34,0-8.7-9.2-9.71-12.43C26.88,73.94,30,80,31.62,82c1.89,2.42,12.54,7.56,17.53,7.56h0c5,0,15.64-5.14,17.53-7.56,1.59-2,4.74-8.1,6.12-17.39C71.79,67.87,68.43,77.09,63.08,77.09Z"/><path class="cls-4" d="M59.85,93h3.4c6.32,1.63,13.23,2.79,17.84,8.12,2.86,3.32,7.85,31.08,7.85,31.08h-39V100.74C55.4,100.74,59.85,97.26,59.85,93Z"/><path class="cls-4" d="M39,93H36.58c-6.32,1.63-12.45,2.78-17,8.11-2.87,3.32-7.85,31.08-7.85,31.08h39v-31C45.21,101.21,39,97.26,39,93Z"/><path class="cls-5" d="M49.91,103.26c7.36,0,13.34-4.61,13.34-10.29H59.74c0,4.28-4.35,7.76-9.83,7.77S39.79,97.25,39.79,93H36.57C36.57,98.65,42.54,103.26,49.91,103.26Z"/><circle class="cls-6" cx="40.6" cy="57.41" r="2.58"/><circle class="cls-6" cx="59.5" cy="57.41" r="2.58"/><rect class="cls-7" x="47.56" y="59.52" width="4.99" height="10.69" rx="1.94"/><path class="cls-8" d="M63.33,93l0,39.16H89.74S85,103.85,81.89,101.09s-4.37-4.42-9.36-5.83S63.33,93,63.33,93Z"/><path class="cls-8" d="M36.58,93l0,39.19H10.59s4.79-28.32,7.85-31.08,4.37-4.42,9.36-5.83S36.58,93,36.58,93Z"/><path class="cls-5" d="M49.76,84.13c3.08,0,5.58-1.3,5.58-2.9H44.18C44.18,82.83,46.68,84.13,49.76,84.13Z"/><circle class="cls-9" cx="38.06" cy="57.3" r="8.17"/><path class="cls-6" d="M38.06,67a9.67,9.67,0,1,1,9.66-9.67A9.68,9.68,0,0,1,38.06,67Zm0-16.33a6.67,6.67,0,1,0,6.66,6.66A6.67,6.67,0,0,0,38.06,50.64Z"/><circle class="cls-9" cx="62.43" cy="57.3" r="8.17"/><path class="cls-6" d="M62.43,67a9.67,9.67,0,1,1,9.66-9.67A9.68,9.68,0,0,1,62.43,67Zm0-16.33a6.67,6.67,0,1,0,6.66,6.66A6.67,6.67,0,0,0,62.43,50.64Z"/><rect class="cls-6" x="46.42" y="55.8" width="8.17" height="3"/><rect class="cls-6" x="35.38" y="58.35" width="5.36" height="3"/><rect class="cls-6" x="59.75" y="58.35" width="5.36" height="3"/></svg>