<svg id="Layer_1" data-name="Layer 1" xmlns="http://www.w3.org/2000/svg" viewBox="0 0 155.7 230.6"><defs><style>.cls-1{fill:#e9c7ac;}.cls-2{fill:#f1d6bb;}.cls-3{fill:#fff;}.cls-4{fill:#4bb4e9;}.cls-5{fill:#b8c6cf;}.cls-6{fill:#010002;}.cls-7{fill:#f9bfa6;}.cls-8{fill:#8a5f3c;}</style></defs><title>Artboard 1 copy 5</title><rect class="cls-1" x="68.27" y="101.05" width="19.67" height="21.57"/><path class="cls-2" d="M77.31,42.39c9.55,0,24.65,5.43,24.65,30.87,0,14.69-4.79,24.31-6.87,27-1.92,2.45-12.72,7.67-17.78,7.67Z"/><path class="cls-2" d="M106.71,79.32c.43-4.06-1.51-7.67-4.32-8S97,73.86,96.54,77.93s1.51,7.67,4.32,8S106.29,83.39,106.71,79.32Z"/><path class="cls-2" d="M78.1,42.39c-9.55,0-24.65,5.43-24.65,30.87,0,14.69,4.78,24.31,6.87,27,1.92,2.45,12.72,7.67,17.78,7.67Z"/><path class="cls-2" d="M48.7,79.32c-.43-4.06,1.51-7.67,4.32-8s5.43,2.59,5.85,6.66-1.51,7.67-4.32,8S49.12,83.39,48.7,79.32Z"/><path class="cls-3" d="M78.1,98.3c4.45,0,8.06-1.47,8.06-3.28H70C70,96.83,73.65,98.3,78.1,98.3Z"/><path class="cls-4" d="M90.07,116.93s18.7,2.73,21.46,5.61c2.41,2.5,7.41,26.49,8.57,31.76H77.85V117.94Z"/><path class="cls-4" d="M65.63,116.93s-18.7,2.73-21.47,5.61c-2.4,2.5-7.4,26.49-8.56,31.76H77.85V117.94Z"/><polyline class="cls-5" points="90.3 116.42 77.85 117.94 65.4 116.42 77.85 154.3"/><polygon class="cls-3" points="77.85 117.94 67.86 113.93 65.4 116.42 70.37 127.44 77.85 117.94"/><polygon class="cls-3" points="77.85 117.94 87.84 113.93 90.3 116.42 85.33 127.44 77.85 117.94"/><circle class="cls-6" cx="68.72" cy="77.69" r="2.55"/><circle class="cls-6" cx="87.42" cy="77.69" r="2.55"/><rect class="cls-7" x="75.61" y="79.77" width="4.93" height="10.57" rx="1.94"/><polygon class="cls-4" points="65.63 116.92 78.1 130.31 90.07 116.92 87.37 143.74 77.85 154.3 66.36 140.28 65.63 116.92"/><path class="cls-8" d="M48.36,53.26c-1.78,5.91,4.28,18.08,4.28,18.08a4.77,4.77,0,0,1,2.26.84c1.06.78,1.28,3.17,1.49,3.38s1.07-.09,1.29-.36-.22-1.62,0-4.58a23.28,23.28,0,0,0-.11-6.51,2.43,2.43,0,0,0,1.59-1.36c1.37-2.56,1-7.37.69-9.44l.05-.05-5.1-6.88C54.39,46.46,50.07,47.59,48.36,53.26Z"/><path class="cls-8" d="M107.26,41.27c-1.43-.8-2,.72-5.81.81S83,34.56,70.64,35.46,54.77,46.37,54.77,46.37h0l5.1,6.88c2,1.9,5.94,4.76,12.7,6.09,10.6,2.08,14-1.28,14-1.28s6.5,1.76,11.65.67a11.62,11.62,0,0,1,.09,3.93c-.9,3.44-.59,5-.43,8s-.26,4.31,0,4.58,1.07.58,1.28.36.44-2.6,1.5-3.38a4.77,4.77,0,0,1,2.26-.84s.1-.61.22-1.64A54.19,54.19,0,0,0,106,58.27c1.31-8.5,0-12.34,0-12.34S108.68,42.08,107.26,41.27Z"/></svg>