<svg id="Layer_1" data-name="Layer 1" xmlns="http://www.w3.org/2000/svg" viewBox="0 0 100.76 132.17"><defs><style>.cls-1{fill:#63422b;}.cls-2{fill:#704d35;}.cls-3{fill:#d1d1d1;}.cls-4{fill:#4bb4e9;}.cls-5{fill:#fff;}.cls-6{fill:#010002;}.cls-7{fill:#c96e55;}.cls-8{fill:#3b9bcb;}.cls-9{fill:#c9d0d9;}.cls-10{fill:none;}</style></defs><rect class="cls-1" x="40.35" y="83.06" width="19.89" height="21.81"/><path class="cls-2" d="M49.56,22.17c9.66,0,24.94,5.49,24.94,31.22,0,14.86-4.85,24.59-7,27.28-1.94,2.48-12.85,7.76-18,7.76Z"/><path class="cls-2" d="M79.3,59.53c.43-4.11-1.53-7.76-4.37-8.15S69.44,54,69,58.12s1.53,7.76,4.38,8.15S78.88,63.64,79.3,59.53Z"/><path class="cls-2" d="M50.36,22.17c-9.66,0-24.93,5.49-24.93,31.22,0,14.86,4.84,24.59,7,27.28,1.94,2.48,12.86,7.76,18,7.76Z"/><path class="cls-2" d="M20.62,59.53c-.42-4.11,1.54-7.76,4.38-8.15s5.49,2.63,5.92,6.74-1.54,7.76-4.38,8.15S21.05,63.64,20.62,59.53Z"/><path class="cls-3" d="M37.35,27.55s-8.43,10-5.2,19.34c.54,11.13-.54,14.9-4.13,18,.9-10.77-.18-14.36-4.13-13.1C22.28,43.3,25.76,20.58,37.35,27.55Z"/><path class="cls-3" d="M63.31,27.94s8.43,10,5.2,19.34c-.54,11.13.54,14.9,4.13,18-.9-10.77.18-14.36,4.13-13.1C78.38,43.69,74.9,21,63.31,27.94Z"/><path class="cls-3" d="M63.69,77.09c-4.87,0-8.35-4-13.93-4s-9.07,4-13.94,4c-5.33,0-8.69-9.2-9.71-12.43C27.49,73.94,30.64,80,32.23,82c1.89,2.42,12.53,7.56,17.53,7.56h0c5,0,15.63-5.14,17.53-7.56,1.58-2,4.74-8.1,6.11-17.39C72.39,67.87,69,77.09,63.69,77.09Z"/><path class="cls-4" d="M60.46,93h3.39c6.32,1.63,13.24,2.79,17.84,8.12,2.87,3.32,7.85,31.08,7.85,31.08h-39V100.74C56,100.74,60.46,97.26,60.46,93Z"/><path class="cls-4" d="M40.28,93.08,37.14,93c-6.32,1.63-12.41,2.76-17,8.09-2.87,3.32-7.85,31.08-7.85,31.08h39V101.48C45.82,101.48,40.28,97.37,40.28,93.08Z"/><path class="cls-5" d="M50.52,103.26c7.36,0,13.19-4.61,13.19-10.29H60.25c0,4.28-4.25,7.76-9.73,7.77S40.35,97.28,40.35,93H37.13C37.13,98.7,43.15,103.26,50.52,103.26Z"/><circle class="cls-6" cx="41.2" cy="57.41" r="2.58"/><circle class="cls-6" cx="60.11" cy="57.41" r="2.58"/><rect class="cls-7" x="48.16" y="59.52" width="4.99" height="10.69" rx="1.94"/><path class="cls-8" d="M63.73,93l0,39.21H90.34s-4.79-28.32-7.85-31.08-4.37-4.42-9.35-5.83S63.73,93,63.73,93Z"/><path class="cls-8" d="M37.13,93v39.16H11.2s4.79-28.32,7.85-31.08,4.36-4.42,9.35-5.83S37.13,93,37.13,93Z"/><path class="cls-5" d="M50.36,84.13c3.08,0,5.58-1.3,5.58-2.9H44.79C44.79,82.83,47.28,84.13,50.36,84.13Z"/><circle class="cls-9" cx="38.33" cy="57.3" r="8.17"/><path class="cls-6" d="M38.33,67A9.67,9.67,0,1,1,48,57.3,9.68,9.68,0,0,1,38.33,67Zm0-16.33A6.67,6.67,0,1,0,45,57.3,6.67,6.67,0,0,0,38.33,50.64Z"/><circle class="cls-9" cx="62.7" cy="57.3" r="8.17"/><path class="cls-6" d="M62.7,67a9.67,9.67,0,1,1,9.66-9.67A9.68,9.68,0,0,1,62.7,67Zm0-16.33a6.67,6.67,0,1,0,6.66,6.66A6.67,6.67,0,0,0,62.7,50.64Z"/><rect class="cls-6" x="46.68" y="55.8" width="8.17" height="3"/><rect class="cls-6" x="35.65" y="58.35" width="5.36" height="3"/><rect class="cls-6" x="60.02" y="58.35" width="5.36" height="3"/><rect class="cls-10" width="100.76" height="132.17"/></svg>