<svg role="presentation" xmlns="http://www.w3.org/2000/svg" viewBox="0 0 98.18 80.95"><defs><style>.rabbit--grey-1{fill:#948fb0;}.rabbit--grey-2{fill:#b0abc9;}.rabbit--grey-3{fill:#e0dced;}.rabbit--grey-4{fill:#bcb6cf;}.rabbit--grey-5{fill:#fff;}.rabbit--grey-6{fill:#c7a1c3;}</style></defs><path class="rabbit--grey-1" d="M30.34,67.32,28.11,76h-.82a4.76,4.76,0,0,0-4.6,3.5L22.27,81H38.68l7.79-11.54s3.89-6.54,2.78-13.77c-.55-3.61-2.7-8.79-10-8.9-9.46-.14-12.47,6.41-12,11.4A22,22,0,0,0,30.34,67.32Z"/><path class="rabbit--grey-2" d="M98.18,64.73s-.15,9.62-7.07,13C86,80.22,80.55,79,79.11,75.61s1.62-7.91,6.82-10.12S98.18,64.73,98.18,64.73Z"/><path class="rabbit--grey-2" d="M76.17,80.64c.84-.33,19.88-3.93,14-31.47-1.69-8-10.64-20.34-30.25-23.26S28.53,37.39,28.53,37.39l-12.94,20c1.95,24.14,23.79,23.23,23.79,23.23Z"/><path class="rabbit--grey-3" d="M50.78,76.47S29.15,77.36,27,53.55H18.09l-2.5,3.86c1.95,24.14,23.79,23.23,23.79,23.23h36c.37-.14,6.06-1,9.43-4.17Z"/><path class="rabbit--grey-2" d="M35.62,67.32,33.4,76h-.82A4.78,4.78,0,0,0,28,79.45L27.55,81H44l7.79-11.54s3.89-6.54,2.78-13.77c-.56-3.61-2.71-8.79-10-8.9-9.45-.14-12.47,6.41-12,11.4A22.14,22.14,0,0,0,35.62,67.32Z"/><path class="rabbit--grey-2" d="M89.75,68.72c-2.68,8.86-11.55,14-19.82,11.52S57.12,68.53,59.8,59.67s11.56-14,19.83-11.52S92.43,59.86,89.75,68.72Z"/><path class="rabbit--grey-4" d="M77.63,77.47A3.47,3.47,0,0,1,74.15,81H58.71v-.61a5.51,5.51,0,0,1,5.51-5.51H77.63Z"/><path class="rabbit--grey-1" d="M19.71,18.15a25,25,0,0,1,2.43-7.87,30.26,30.26,0,0,1,4.45-6.94S29-.11,31.31,0A4.64,4.64,0,0,1,35,3.14c1.78,5,.44,14-.52,16.58a16.47,16.47,0,0,1-4.58,6.2,26.23,26.23,0,0,1-6,3.69L20,27.84A55.12,55.12,0,0,1,19.71,18.15Z"/><path class="rabbit--grey-2" d="M4.36,31.74C-2.13,41.14-1.28,53,6.26,58.18s18.91,1.8,25.4-7.6,5.63-21.23-1.91-26.44S10.85,22.34,4.36,31.74Z"/><path class="rabbit--grey-2" d="M4.29,54.7C4,55.78,6.23,58.15,6.23,58.15l0,0c7.54,5.2,18.91,1.8,25.4-7.6,6-8.69,5.72-19.47-.32-25.16C30.85,25,9,39.62,4.29,54.7Z"/><path class="rabbit--grey-3" d="M14.29,60.61a9.32,9.32,0,0,0,.54-1.77A8.38,8.38,0,0,0,8.58,48.78,8,8,0,0,0,1.1,51.41a14,14,0,0,0,5.16,6.77A14,14,0,0,0,14.29,60.61Z"/><path d="M2.39,54l1.37-2.7a1.41,1.41,0,0,0-1.88-1.9L.65,50A15.25,15.25,0,0,0,2.39,54Z"/><path class="rabbit--grey-1" d="M19.34,34.8s2.19,6.83-.6,9.48-9.5.1-9.5.1-2.18-6.83.6-9.48S19.34,34.8,19.34,34.8Z"/><path d="M17.86,36.2s1.55,4.84-.42,6.7-6.72.08-6.72.08-1.55-4.84.42-6.71S17.86,36.2,17.86,36.2Z"/><path class="rabbit--grey-5" d="M14.87,39.75a1,1,0,0,0-.74-1.11.94.94,0,1,0,.74,1.11Z"/><path class="rabbit--grey-4" d="M26.17,18.77a24.71,24.71,0,0,1,4.1-7.15,30.68,30.68,0,0,1,5.87-5.8S39.2,3,41.47,3.61a4.62,4.62,0,0,1,2.92,3.87c.63,5.28-2.65,13.78-4.15,16.06a16.26,16.26,0,0,1-5.83,5,25.64,25.64,0,0,1-6.69,2.28l-3.43-2.59A54.42,54.42,0,0,1,26.17,18.77Z"/><path class="rabbit--grey-6" d="M28.71,18.45A21.55,21.55,0,0,1,31.86,13a23.29,23.29,0,0,1,4.49-4.44s2.35-2.18,4.08-1.69a3.53,3.53,0,0,1,2.24,3c.48,4-2,10.55-3.18,12.3a12,12,0,0,1-4.37,4.07,30.42,30.42,0,0,1-8.93,3.07A36.54,36.54,0,0,1,28.71,18.45Z"/></svg>