<svg id="Layer_1" data-name="Layer 1" xmlns="http://www.w3.org/2000/svg" viewBox="0 0 100.76 132.17"><defs><style>.cls-1{fill:#ddb294;}.cls-2{fill:#e8c5a6;}.cls-3{fill:#fff;}.cls-4{fill:#842c28;}.cls-5{fill:#4bb4e9;}.cls-6{fill:#b8c6cf;}.cls-7{fill:#3b9bcb;}.cls-8{fill:#010002;}.cls-9{fill:#e8a38b;}</style></defs><rect class="cls-1" x="39.72" y="78.34" width="19.89" height="21.81"/><path class="cls-2" d="M48.87,18.92c9.66,0,24.93,5.49,24.93,31.22,0,14.86-4.84,24.59-7,27.29-1.94,2.47-12.86,7.75-18,7.75Z"/><path class="cls-2" d="M78.61,56.28c.42-4.11-1.54-7.76-4.38-8.15s-5.49,2.63-5.92,6.74,1.54,7.76,4.38,8.15S78.18,60.39,78.61,56.28Z"/><path class="cls-2" d="M49.67,18.92c-9.66,0-24.94,5.49-24.94,31.22,0,14.86,4.85,24.59,7,27.29,1.94,2.47,12.85,7.75,18,7.75Z"/><path class="cls-2" d="M19.93,56.28c-.43-4.11,1.53-7.76,4.37-8.15s5.49,2.63,5.92,6.74S28.69,62.63,25.84,63,20.35,60.39,19.93,56.28Z"/><path class="cls-3" d="M49.67,75.47c4.5,0,8.15-1.48,8.15-3.32H41.52C41.52,74,45.17,75.47,49.67,75.47Z"/><path class="cls-4" d="M28.17,59.18H29.9s-1-6.7,2-8.86V46s-1.19-.14-1.19-5.24S36.81,32,49.79,32V16.39s-25.66,2.77-25.66,21.4v12.8a4.31,4.31,0,0,1,3.21.8C28.78,52.6,28.17,59.18,28.17,59.18Z"/><path class="cls-4" d="M71.16,59.18H69.44s1-6.7-2-8.86V46s1.19-.14,1.19-5.24S62.53,32,49.55,32V16.39s25.66,2.77,25.66,21.4v12.8a4.31,4.31,0,0,0-3.21.8C70.56,52.6,71.16,59.18,71.16,59.18Z"/><path class="cls-4" d="M73.12,29.15c-4-16.33-28.18-29.15-45.2-3.52-1.09,5.05,3.66,7.42,3.66,7.42s3.18-7.42,17.74-4C56.57,27.47,63.64,26.29,66.9,33S73.12,29.15,73.12,29.15Z"/><path class="cls-5" d="M61.77,94.4s18.92,2.77,21.71,5.68c2.43,2.53,7.49,26.8,8.66,32.12H49.41V95.43Z"/><path class="cls-5" d="M37.05,94.4s-18.91,2.77-21.71,5.68c-2.43,2.53-7.48,26.8-8.65,32.12H49.41V95.43Z"/><polyline class="cls-6" points="62 93.89 49.41 95.43 36.83 93.89 49.41 132.2"/><polygon class="cls-7" points="48.13 99.13 45.61 125.04 49.41 132.2 53.22 125.04 50.7 99.13 48.13 99.13"/><path class="cls-7" d="M40.34,110.43l-10-14.85a48.74,48.74,0,0,1,8.77-2.24L49.42,132.2,35,111.5Z"/><path class="cls-7" d="M58.49,110.43l10-14.85a48.74,48.74,0,0,0-8.77-2.24L49.42,132.2l14.46-20.7Z"/><path class="cls-7" d="M52.81,98.91l-3.39,3.4L46,98.91l3.4-3.39Z"/><polygon class="cls-3" points="49.41 95.43 39.31 91.37 36.83 93.89 41.85 105.04 49.41 95.43"/><polygon class="cls-3" points="49.41 95.43 59.51 91.37 62 93.89 56.98 105.04 49.41 95.43"/><circle class="cls-8" cx="40.18" cy="54.63" r="2.58"/><circle class="cls-8" cx="59.09" cy="54.63" r="2.58"/><rect class="cls-9" x="47.14" y="56.74" width="4.99" height="10.69" rx="1.94"/></svg>