<?xml version="1.0" encoding="utf-8"?>
<!-- Generator: Adobe Illustrator 22.1.0, SVG Export Plug-In . SVG Version: 6.00 Build 0)  -->
<svg version="1.1" id="Layer_1" xmlns="http://www.w3.org/2000/svg" xmlns:xlink="http://www.w3.org/1999/xlink" x="0px" y="0px"
	 viewBox="0 0 155.7 230.6" style="enable-background:new 0 0 155.7 230.6;" xml:space="preserve">
<style type="text/css">
	.st0{fill:#F03A47;}
	.st1{fill:#461811;}
	.st2{fill:#E9C7AC;}
	.st3{fill:#F1D6BB;}
	.st4{fill:#FFFFFF;}
	.st5{fill:#FFC400;}
	.st6{fill:#0579B2;}
	.st7{fill:#010002;}
	.st8{fill:#F9BFA6;}
	.st9{fill:#14A799;}
	.st10{fill:#C0C3C5;}
	.st11{fill:#4CD5BB;}
	.st12{fill:#D8A68B;}
	.st13{fill:#8A5F3C;}
	.st14{fill:#B8C6CF;}
	.st15{fill:#00CCB0;}
	.st16{fill:#E5E6E7;}
	.st17{fill:#C9D0D9;stroke:#010002;stroke-width:3;stroke-miterlimit:10;}
	.st18{fill:none;stroke:#010002;stroke-width:3;stroke-miterlimit:10;}
</style>
<rect x="68.2" y="97.5" class="st12" width="19.9" height="21.8"/>
<path class="st3" d="M77.4,35.1c9.7,0,24.9,5.5,24.9,31.2c0,14.9-4.8,24.6-7,27.3c-1.9,2.5-12.9,7.8-18,7.8
	C77.4,75.3,77.4,35.1,77.4,35.1z"/>
<path class="st3" d="M107.1,72.4c0.4-4.1-1.5-7.8-4.4-8.1c-2.8-0.4-5.5,2.6-5.9,6.7c-0.4,4.1,1.5,7.8,4.4,8.1
	C104,79.5,106.7,76.5,107.1,72.4z"/>
<path class="st3" d="M78.2,35.1c-9.7,0-24.9,5.5-24.9,31.2c0,14.9,4.8,24.6,7,27.3c1.9,2.5,12.9,7.8,18,7.8
	C78.2,75.3,78.2,35.1,78.2,35.1z"/>
<path class="st3" d="M48.4,72.4c-0.4-4.1,1.5-7.8,4.4-8.1c2.8-0.4,5.5,2.6,5.9,6.7c0.4,4.1-1.5,7.8-4.4,8.1
	C51.5,79.5,48.9,76.5,48.4,72.4z"/>
<path class="st4" d="M78.2,91.6c4.5,0,8.2-1.5,8.2-3.3H70C70,90.1,73.7,91.6,78.2,91.6z"/>
<path class="st13" d="M56.7,75.3h1.7c0,0-1-6.7,2-8.9c0-3.4,0-4.3,0-4.3s-1.2-0.1-1.2-5.2c0-5.1,6.1-8.7,19.1-8.7
	c0-7.3,0-15.6,0-15.6s-25.7,2.8-25.7,21.4c0,7.7,0,12.8,0,12.8s1.9-0.3,3.2,0.8C57.3,68.7,56.7,75.3,56.7,75.3z"/>
<path class="st13" d="M99.7,75.3H98c0,0,1-6.7-2-8.9c0-3.4,0-4.3,0-4.3s1.2-0.1,1.2-5.2c0-5.1-6.1-8.7-19.1-8.7c0-7.3,0-15.6,0-15.6
	s25.7,2.8,25.7,21.4c0,7.7,0,12.8,0,12.8s-1.9-0.3-3.2,0.8C99.1,68.7,99.7,75.3,99.7,75.3z"/>
<g>
	<path class="st13" d="M101.6,45.3c-4-16.3-28.2-29.2-45.2-3.5c-1.1,5.1,3.7,7.4,3.7,7.4s3.2-7.4,17.7-4c7.3-1.6,14.3-2.8,17.6,3.9
			C98.7,55.8,101.6,45.3,101.6,45.3z"/>
</g>
<path class="st5" d="M90.3,113.5c0,0,18.9,2.8,21.7,5.7c2.4,2.5,7.5,26.8,8.7,32.1c-33.2,0-42.7,0-42.7,0v-36.8L90.3,113.5z"/>
<path class="st5" d="M65.6,113.5c0,0-18.9,2.8-21.7,5.7c-2.4,2.5-7.5,26.8-8.7,32.1c33.2,0,42.7,0,42.7,0v-36.8L65.6,113.5z"/>
<polyline class="st14" points="90.5,113 77.9,114.6 65.3,113 77.9,151.3 "/>
<polygon class="st15" points="76.6,118.3 74.1,144.2 77.9,151.3 81.7,144.2 79.2,118.3 "/>
<path class="st6" d="M68.9,129.6l-10-14.8c2.7-1,5.7-1.7,8.8-2.2l10.3,38.9l-14.5-20.7L68.9,129.6z"/>
<path class="st6" d="M87,129.6l10-14.8c-2.7-1-5.7-1.7-8.8-2.2l-10.3,38.9l14.5-20.7L87,129.6z"/>
<path class="st15" d="M81.3,118.1l-3.4,3.4l-3.4-3.4l3.4-3.4L81.3,118.1z"/>
<polygon class="st4" points="77.9,114.6 67.8,110.5 65.3,113 70.4,124.2 "/>
<polygon class="st4" points="77.9,114.6 88,110.5 90.5,113 85.5,124.2 "/>
<circle class="st7" cx="68.7" cy="70.8" r="2.6"/>
<circle class="st7" cx="87.6" cy="70.8" r="2.6"/>
<path class="st8" d="M78.7,83.6h-1.1c-1.1,0-1.9-0.9-1.9-1.9v-6.8c0-1.1,0.9-1.9,1.9-1.9h1.1c1.1,0,1.9,0.9,1.9,1.9v6.8
	C80.6,82.7,79.8,83.6,78.7,83.6z"/>
</svg>
