<?xml version="1.0" encoding="utf-8"?>
<!-- Generator: Adobe Illustrator 22.1.0, SVG Export Plug-In . SVG Version: 6.00 Build 0)  -->
<svg version="1.1" id="Layer_1" xmlns="http://www.w3.org/2000/svg" xmlns:xlink="http://www.w3.org/1999/xlink" x="0px" y="0px"
	 viewBox="0 0 156 231" style="enable-background:new 0 0 156 231;" xml:space="preserve">
<style type="text/css">
	.st0{fill:#F03A47;}
	.st1{fill:#461811;}
	.st2{fill:#E9C7AC;}
	.st3{fill:#F1D6BB;}
	.st4{fill:#FFFFFF;}
	.st5{fill:#FFC400;}
	.st6{fill:#0579B2;}
	.st7{fill:#010002;}
	.st8{fill:#F9BFA6;}
	.st9{fill:#14A799;}
	.st10{fill:#C0C3C5;}
	.st11{fill:#4CD5BB;}
	.st12{fill:#D8A68B;}
	.st13{fill:#8A5F3C;}
	.st14{fill:#B8C6CF;}
	.st15{fill:#00CCB0;}
	.st16{fill:#E5E6E7;}
	.st17{fill:#C9D0D9;stroke:#010002;stroke-width:3;stroke-miterlimit:10;}
	.st18{fill:none;stroke:#010002;stroke-width:3;stroke-miterlimit:10;}
</style>
<rect x="69.5" y="97.9" class="st12" width="19.9" height="21.8"/>
<path class="st3" d="M79.5,33.9c9.7,0,24.9,5.5,24.9,31.2c0,14.9-4.8,24.6-7,27.3c-1.9,2.5-12.9,7.8-18,7.8
	C79.5,74.1,79.5,33.9,79.5,33.9z"/>
<path class="st3" d="M109.2,71.2c0.4-4.1-1.5-7.8-4.4-8.1c-2.8-0.4-5.5,2.6-5.9,6.7c-0.4,4.1,1.5,7.8,4.4,8.1
	C106.1,78.4,108.8,75.4,109.2,71.2z"/>
<path class="st3" d="M79.5,33.9c-9.7,0-24.9,5.5-24.9,31.2c0,14.9,4.8,24.6,7,27.3c1.9,2.5,12.9,7.8,18,7.8
	C79.5,74.1,79.5,33.9,79.5,33.9z"/>
<path class="st3" d="M49.7,71.2c-0.4-4.1,1.5-7.8,4.4-8.1c2.8-0.4,5.5,2.6,5.9,6.7c0.4,4.1-1.5,7.8-4.4,8.1
	C52.8,78.4,50.2,75.4,49.7,71.2z"/>
<path class="st10" d="M57.9,73.3h1.7c0,0-1-6.7,2-8.9c0-3.4,0-4.3,0-4.3s-1.2-0.1-1.2-5.2c0-5.1,6.1-8.7,19.1-8.7
	c0-7.3,0-15.6,0-15.6s-25.7,2.8-25.7,21.4c0,7.7,0,12.8,0,12.8s1.9-0.3,3.2,0.8C58.5,66.7,57.9,73.3,57.9,73.3z"/>
<path class="st10" d="M100.8,73.3h-1.7c0,0,1-6.7-2-8.9c0-3.4,0-4.3,0-4.3s1.2-0.1,1.2-5.2c0-5.1-6.1-8.7-19.1-8.7
	c0-7.3,0-15.6,0-15.6s25.7,2.8,25.7,21.4c0,7.7,0,12.8,0,12.8s-1.9-0.3-3.2,0.8C100.2,66.7,100.8,73.3,100.8,73.3z"/>
<g>
	<path class="st10" d="M103.3,45.7c-4-16.3-28.2-29.2-45.2-3.5c-1.1,5.1,3.7,7.4,3.7,7.4s3.2-7.4,17.7-4c7.3-1.6,14.3-2.8,17.6,3.9
			C100.3,56.2,103.3,45.7,103.3,45.7z"/>
</g>
<path class="st10" d="M93.8,91.1c-5,0-8.6-4.1-14.3-4.1c-5.7,0-9.3,4.1-14.3,4.1c-5.5,0-8.9-9.4-10-12.7c1.4,9.5,4.6,15.8,6.3,17.8
	c1.9,2.5,12.9,7.8,18,7.8h0l0,0c5.1,0,16-5.3,18-7.8c1.6-2.1,4.9-8.3,6.3-17.8C102.7,81.7,99.2,91.1,93.8,91.1z"/>
<path class="st6" d="M89.6,108.7H93c6.3,1.6,13.2,2.8,17.8,8.1c2.9,3.3,7.8,31.1,7.8,31.1h-12.1h-27v-25.4v-6
	C85.1,116.5,89.6,113,89.6,108.7z"/>
<path class="st6" d="M69.7,108.7h-3.4c-6.3,1.6-13.2,2.8-17.8,8.1c-2.9,3.3-7.8,31.1-7.8,31.1h12.1h27v-25.4v-6
	C74.1,116.5,69.7,113,69.7,108.7z"/>
<path class="st4" d="M79.6,119c7.4,0,13.3-4.6,13.3-10.3h-3.4c0,4.3-4.4,7.8-9.9,7.8c-5.5,0-9.9-3.5-9.9-7.8h-3.4
	C66.3,114.4,72.3,119,79.6,119z"/>
<circle class="st7" cx="70.4" cy="71.1" r="2.6"/>
<circle class="st7" cx="89.3" cy="71.1" r="2.6"/>
<path class="st8" d="M80.4,83.9h-1.1c-1.1,0-1.9-0.9-1.9-1.9v-6.8c0-1.1,0.9-1.9,1.9-1.9h1.1c1.1,0,1.9,0.9,1.9,1.9V82
	C82.3,83.1,81.5,83.9,80.4,83.9z"/>
<rect x="74.5" y="127.8" transform="matrix(0.7071 0.7071 -0.7071 0.7071 117.4595 -17.4437)" class="st15" width="10.6" height="10.6"/>
<rect x="59.6" y="127.8" transform="matrix(0.7071 0.7071 -0.7071 0.7071 113.1141 -6.9529)" class="st5" width="10.6" height="10.6"/>
<rect x="88.8" y="127.8" transform="matrix(0.7071 0.7071 -0.7071 0.7071 121.6699 -27.6086)" class="st0" width="10.6" height="10.6"/>
<path class="st4" d="M79.5,97.9c3.1,0,5.6-1.3,5.6-2.9H73.9C73.9,96.6,76.4,97.9,79.5,97.9z"/>
</svg>
