<?xml version="1.0" encoding="utf-8"?>
<!-- Generator: Adobe Illustrator 22.1.0, SVG Export Plug-In . SVG Version: 6.00 Build 0)  -->
<svg version="1.1" id="Layer_1" xmlns="http://www.w3.org/2000/svg" xmlns:xlink="http://www.w3.org/1999/xlink" x="0px" y="0px"
	 viewBox="0 0 155.7 230.6" style="enable-background:new 0 0 155.7 230.6;" xml:space="preserve">
<style type="text/css">
	.st0{fill:#F03A47;}
	.st1{fill:#461811;}
	.st2{fill:#E9C7AC;}
	.st3{fill:#F1D6BB;}
	.st4{fill:#FFFFFF;}
	.st5{fill:#FFC400;}
	.st6{fill:#0579B2;}
	.st7{fill:#010002;}
	.st8{fill:#F9BFA6;}
	.st9{fill:#14A799;}
	.st10{fill:#C0C3C5;}
	.st11{fill:#4CD5BB;}
	.st12{fill:#D8A68B;}
	.st13{fill:#8A5F3C;}
	.st14{fill:#B8C6CF;}
	.st15{fill:#00CCB0;}
	.st16{fill:#E5E6E7;}
	.st17{fill:#C9D0D9;stroke:#010002;stroke-width:3;stroke-miterlimit:10;}
	.st18{fill:none;stroke:#010002;stroke-width:3;stroke-miterlimit:10;}
</style>
<path class="st1" d="M53.3,75.4c0,11.4-6.2,11.7-5.8,19.2c0.5,8.3,7,8.4,7,14.1c0,5.7-6,12.2-0.7,18.3c23.4,0,25.6,0,25.6,0V57.4
	L53.3,75.4z"/>
<path class="st1" d="M105.7,75.4c0,11.4,6.2,11.7,5.8,19.2c-0.5,8.3-7,8.4-7,14.1c0,5.7,6,12.2,0.7,18.3c-23.4,0-25.6,0-25.6,0V57.4
	L105.7,75.4z"/>
<ellipse transform="matrix(0.7071 -0.7071 0.7071 0.7071 -20.6682 74.3205)" class="st1" cx="79.4" cy="62.1" rx="29.7" ry="29.7"/>
<polygon class="st2" points="89.3,125.8 79.3,154 69.4,125.8 69.4,104 89.3,104 "/>
<path class="st3" d="M79.4,43.5c-9.7,0-24.9,5.5-24.9,31.2c0,14.9,5.8,21.9,7.9,24.6c1.9,2.5,11.9,10.5,17,10.5
	C79.4,83.8,79.4,43.5,79.4,43.5z"/>
<path class="st3" d="M49.6,80.9c-0.4-4.1,1.5-7.8,4.4-8.1c2.8-0.4,5.5,2.6,5.9,6.7c0.4,4.1-1.5,7.8-4.4,8.1
	C52.7,88,50.1,85,49.6,80.9z"/>
<path class="st3" d="M79.3,43.5c9.7,0,24.9,5.5,24.9,31.2c0,14.9-5.8,21.9-7.9,24.6c-1.9,2.5-11.9,10.5-17,10.5
	C79.3,83.8,79.3,43.5,79.3,43.5z"/>
<path class="st3" d="M108.5,80.9c0.8-4.2-1.8-7.7-5.9-8c-4.1-0.2-8,2.9-8.9,7.1c-0.8,4.2,1.8,7.7,5.9,8
	C103.7,88.3,107.7,85.1,108.5,80.9z"/>
<path class="st2" d="M79.3,154v-27.2c0,0-7.4-1.8-9.1-7.9c-0.8-2.9-0.8-5.2-0.8-5.2s-16.2,5.5-19.9,11.1c-3,9-3.8,29.1-3.8,29.1
	H79.3z"/>
<path class="st2" d="M79.3,154v-27.2c0,0,7.4-1.8,9.1-7.9c0.8-2.9,0.8-5.2,0.8-5.2s16.2,5.5,19.9,11.1c3,9,3.8,29.1,3.8,29.1H79.3z"
	/>
<path class="st4" d="M79.4,100.7c3.8,0,6.8-2.3,6.8-5.2H72.6C72.6,98.4,75.6,100.7,79.4,100.7z"/>
<g>
	<path class="st1" d="M78,36.1c-17.6,0-23,15.5-23,22.6c-6.4,8.9,0.6,16.9,5.5,19.7c0-1.7,0-2.3,0-4.4c0-5.8,5.5-11.1,13.7-10.2
		c7.4,0.8,12-3.4,15.9-10.4C94.9,43.9,88.9,36.1,78,36.1z"/>
</g>
<g>
  <path class="st1" d="M89.3,50.4c0,0,4.1,16.7,15.4,22.3c2-15.1,3.2-11.9,0-19.8c-3.2-7.9-15.4-13.8-15.4-13.8V50.4z"/>
</g>
<path class="st5" d="M79.3,154v-36.1l-9.8-4.1c0,0-16.2,5.5-19.9,11.1c-3,9-3.8,29.1-3.8,29.1H79.3z"/>
<path class="st5" d="M79.3,154v-36.1l9.8-4.1c0,0,16.2,5.5,19.9,11.1c3,9,3.8,29.1,3.8,29.1H79.3z"/>
<polygon class="st6" points="79.3,117.9 69.2,113.8 66.7,116.3 71.7,127.5 "/>
<polygon class="st6" points="79.3,117.9 89.4,113.8 91.8,116.3 86.8,127.5 "/>
<circle class="st7" cx="69.8" cy="76.9" r="2.6"/>
<circle class="st7" cx="88.7" cy="76.9" r="2.6"/>
<path class="st8" d="M79.9,89.7h-1.1c-1.1,0-1.9-0.9-1.9-1.9v-6.8c0-1.1,0.9-1.9,1.9-1.9h1.1c1.1,0,1.9,0.9,1.9,1.9v6.8
	C81.9,88.8,81,89.7,79.9,89.7z"/>
</svg>
