<?xml version="1.0" encoding="utf-8"?>
<!-- Generator: Adobe Illustrator 22.1.0, SVG Export Plug-In . SVG Version: 6.00 Build 0)  -->
<svg version="1.1" id="Layer_1" xmlns="http://www.w3.org/2000/svg" xmlns:xlink="http://www.w3.org/1999/xlink" x="0px" y="0px"
	 viewBox="0 0 156 231" style="enable-background:new 0 0 156 231;" xml:space="preserve">
<style type="text/css">
	.st0{fill:#F03A47;}
	.st1{fill:#461811;}
	.st2{fill:#E9C7AC;}
	.st3{fill:#F1D6BB;}
	.st4{fill:#FFFFFF;}
	.st5{fill:#FFC400;}
	.st6{fill:#0579B2;}
	.st7{fill:#010002;}
	.st8{fill:#F9BFA6;}
	.st9{fill:#14A799;}
	.st10{fill:#C0C3C5;}
	.st11{fill:#4CD5BB;}
	.st12{fill:#D8A68B;}
	.st13{fill:#8A5F3C;}
	.st14{fill:#B8C6CF;}
	.st15{fill:#00CCB0;}
	.st16{fill:#E5E6E7;}
	.st17{fill:#C9D0D9;stroke:#010002;stroke-width:3;stroke-miterlimit:10;}
	.st18{fill:none;stroke:#010002;stroke-width:3;stroke-miterlimit:10;}
</style>
<path class="st16" d="M108.4,89c0,16.1-13,7.7-29.1,7.7l0,0c-16.1,0-29.1,8.4-29.1-7.7V62.7c0-16.1,13-29.1,29.1-29.1l0,0
	c16.1,0,29.1,13,29.1,29.1V89z"/>
<path class="st16" d="M109.1,62.9c0-16.4-13.3-29.7-29.7-29.7c-16.4,0-29.7,13.3-29.7,29.7c0,16.4,13.3,29.7,29.7,29.7
	C95.8,92.7,109.1,79.4,109.1,62.9z"/>
<polygon class="st2" points="89.3,126.6 79.2,154.9 69.4,126.6 69.4,104.8 89.3,104.8 "/>
<path class="st3" d="M79.3,44.3c-9.7,0-24.9,5.5-24.9,31.2c0,14.9,5.8,21.9,7.9,24.6c1.9,2.5,11.9,10.5,17,10.5
	C79.3,84.6,79.3,44.3,79.3,44.3z"/>
<path class="st3" d="M49.6,81.7c-0.4-4.1,1.5-7.8,4.4-8.1c2.8-0.4,5.5,2.6,5.9,6.7c0.4,4.1-1.5,7.8-4.4,8.1
	C52.7,88.8,50,85.8,49.6,81.7z"/>
<path class="st3" d="M79.3,44.3c9.7,0,24.9,5.5,24.9,31.2c0,14.9-5.8,21.9-7.9,24.6c-1.9,2.5-11.9,10.5-17,10.5
	C79.3,84.6,79.3,44.3,79.3,44.3z"/>
<path class="st3" d="M109.1,81.7c0.4-4.1-1.5-7.8-4.4-8.1c-2.8-0.4-5.5,2.6-5.9,6.7c-0.4,4.1,1.5,7.8,4.4,8.1
	C106,88.8,108.7,85.8,109.1,81.7z"/>
<path class="st2" d="M79.2,154.9v-27.2c0,0-7.4-1.8-9.1-7.9c-0.8-2.9-0.8-5.2-0.8-5.2s-16.2,5.5-19.9,11.1c-3,9-3.8,29.1-3.8,29.1
	H79.2z"/>
<path class="st2" d="M79.2,154.9v-27.2c0,0,7.4-1.8,9.1-7.9c0.8-2.9,0.8-5.2,0.8-5.2s16.2,5.5,19.9,11.1c3,9,3.8,29.1,3.8,29.1H79.2
	z"/>
<path class="st4" d="M79.3,101.5c3.8,0,6.8-2.3,6.8-5.2H72.5C72.5,99.2,75.6,101.5,79.3,101.5z"/>
<g>
	<path class="st16" d="M77.9,36.9c-17.6,0-23,15.5-23,22.6c-6.4,8.9,0.6,16.9,5.5,19.7c0-1.7,0-2.3,0-4.4c0-5.8,5.5-11.1,13.7-10.2
			c7.4,0.8,12-3.4,15.9-10.4C94.9,44.7,88.8,36.9,77.9,36.9z"/>
</g>
<g>
	<path class="st16" d="M89.3,51.3c0,0,4.1,16.7,15.4,22.3c2-15.1,3.2-11.9,0-19.8c-3.2-7.9-15.4-13.8-15.4-13.8V51.3z"/>
</g>
<path class="st15" d="M79.2,154.9V132l-9.8-17.4c0,0-16.2,5.5-19.9,11.1c-3,9-3.8,29.1-3.8,29.1H79.2z"/>
<path class="st15" d="M79.2,154.9V132l9.8-17.4c0,0,16.2,5.5,19.9,11.1c3,9,3.8,29.1,3.8,29.1H79.2z"/>
<circle class="st13" cx="69.8" cy="77.1" r="2.6"/>
<circle class="st13" cx="88.7" cy="77.1" r="2.6"/>
<circle class="st17" cx="67.2" cy="75.9" r="8.2"/>
<circle class="st17" cx="91.6" cy="75.9" r="8.2"/>
<line class="st18" x1="75.5" y1="75.9" x2="83.7" y2="75.9"/>
<line class="st18" x1="64.5" y1="78.4" x2="69.9" y2="78.4"/>
<line class="st18" x1="88.9" y1="78.4" x2="94.2" y2="78.4"/>
<path class="st8" d="M79.9,89.9h-1.1c-1.1,0-1.9-0.9-1.9-1.9v-6.8c0-1.1,0.9-1.9,1.9-1.9h1.1c1.1,0,1.9,0.9,1.9,1.9v6.8
	C81.9,89,81,89.9,79.9,89.9z"/>
<path class="st5" d="M64.6,116.8v38.3H45.8c0,0,0.5-23.3,3.8-29C52.9,120.5,64.6,116.8,64.6,116.8z"/>
<path class="st5" d="M93.8,116.8v38.3h18.8c0,0-0.5-23.3-3.8-29C105.5,120.5,93.8,116.8,93.8,116.8z"/>
<polygon class="st6" points="79.2,132 69.4,114.6 60.4,117.5 68.1,134.8 "/>
<polygon class="st6" points="79.2,132 89,114.6 98.1,117.5 90.4,134.8 "/>
</svg>
