<svg width="849" height="177" viewBox="0 0 849 177" fill="none" xmlns="http://www.w3.org/2000/svg">
<path d="M0.839996 2.09V49.77V127.18V174.85L24.68 151.01L48.52 127.18V49.77L24.68 25.93L0.839996 2.09Z" fill="#0579B2"/>
<path d="M0.839996 2.09L24.68 25.93L48.52 49.77H125.93L149.76 25.93L173.6 2.09H0.839996Z" fill="#FFC400"/>
<path d="M173.6 2.09L149.76 25.93L125.93 49.77V127.18L149.76 151.01L173.6 174.85V2.09Z" fill="#F03A47"/>
<path d="M48.52 127.17L24.68 151.01L0.839996 174.85H48.52H125.93H173.6L149.76 151.01L125.93 127.17H48.52Z" fill="#00CCB0"/>
<path d="M207.7 45.54V2H229.51V45.1C229.51 56.28 235.15 61.59 243.79 61.59C252.43 61.59 258.07 56.5 258.07 45.65V2H279.87V45C279.87 70 265.59 81 243.57 81C221.55 81 207.7 69.78 207.7 45.54Z" fill="black"/>
<path d="M289.91 2H312.6L331.09 32L349.57 2H372.26V79.48H350.9V35L331.09 65.33H330.64L310.94 35.23V79.5H289.94L289.91 2Z" fill="black"/>
<path d="M382.21 2H444.21V20.82H403.69V34H440.33V51.82H403.69V79.49H382.21V2Z" fill="black"/>
<path d="M454.08 2H490.72C502.56 2 510.72 5.1 515.96 10.41C520.5 14.84 522.82 20.82 522.82 28.41V28.64C522.82 40.48 516.51 48.34 506.88 52.43L525.37 79.43H500.57L485 56.06H475.6V79.52H454.08V2ZM489.72 39.19C497.03 39.19 501.24 35.65 501.24 30V29.78C501.24 23.69 496.81 20.6 489.61 20.6H475.56V39.19H489.72Z" fill="black"/>
<path d="M561.52 1.49H582.22L615.22 79.49H592.22L586.58 65.66H556.65L551.11 79.49H528.53L561.52 1.49ZM580.34 49L571.7 27L563 49H580.34Z" fill="black"/>
<path d="M613 41V40.78C613 18.2 630.72 0.489998 654.74 0.489998C668.35 0.489998 677.98 4.7 686.17 11.78L673.55 26.94C668.02 22.29 662.48 19.64 654.85 19.64C643.67 19.64 635.03 29.05 635.03 40.89V41.11C635.03 53.62 643.78 62.59 656.03 62.59C661.24 62.59 665.22 61.48 668.43 59.38V50H653.17V34.25H688.81V69.12C679.339 76.921 667.43 81.1502 655.16 81.07C631 81.07 613 64.47 613 41Z" fill="black"/>
<path d="M698.9 2H761.22V20.3H720.16V32H757.35V49H720.16V61.29H761.78V79.55H698.9V2Z" fill="black"/>
<path d="M770.38 2H790.38L822.26 43V2H843.51V79.48H824.73L791.63 37V79.5H770.38V2Z" fill="black"/>
<path d="M207.5 97.25H231.5L249.1 146.25L266.7 97.25H290.3L258.86 175.25H238.93L207.5 97.25Z" fill="black"/>
<path d="M296 97.25H358.32V115.51H317.22V127.25H354.41V144.18H317.22V156.47H358.84V174.73H296V97.25Z" fill="black"/>
<path d="M367.19 97.25H403.82C415.67 97.25 423.82 100.35 429.06 105.66C433.6 110.09 435.93 116.07 435.93 123.66V123.89C435.93 135.73 429.62 143.59 419.99 147.68L438.47 174.68H413.68L398.07 151.22H388.66V174.68H367.19V97.25ZM402.83 134.44C410.13 134.44 414.34 130.9 414.34 125.25V125C414.34 118.91 409.91 115.82 402.72 115.82H388.66V134.41L402.83 134.44Z" fill="black"/>
<path d="M441.76 136.21V136C441.76 113.42 459.47 95.71 483.49 95.71C497.1 95.71 506.73 99.92 514.92 107L502.3 122.15C496.77 117.51 491.24 114.85 483.6 114.85C472.42 114.85 463.78 124.26 463.78 136.1V136.32C463.78 148.83 472.53 157.8 484.78 157.8C489.98 157.8 493.96 156.69 497.17 154.59V145.18H481.94V129.46H517.58V164.33C508.109 172.131 496.2 176.36 483.93 176.28C459.8 176.28 441.76 159.68 441.76 136.21Z" fill="black"/>
<path d="M526.8 97.25H548.27V155.92H585.8V174.73H526.8V97.25Z" fill="black"/>
<path d="M594.5 97.25H656.82V115.51H615.76V127.25H653V144.18H615.76V156.47H657.38V174.73H594.5V97.25Z" fill="black"/>
<path d="M666.42 97.25H688V174.73H666.42V97.25Z" fill="black"/>
<path d="M695.91 136.21V136C695.91 113.42 713.29 95.71 736.75 95.71C752.58 95.71 762.75 102.35 769.63 111.87L753.47 124.38C749.04 118.84 743.95 115.3 736.53 115.3C725.68 115.3 718.05 124.49 718.05 135.78V136C718.05 147.62 725.68 156.7 736.53 156.7C744.61 156.7 749.37 152.94 754.02 147.29L770.18 158.8C762.88 168.88 753.03 176.29 735.87 176.29C713.73 176.28 695.91 159.35 695.91 136.21Z" fill="black"/>
<path d="M778.26 98.25H799.73V127.25H827.3V98.25H848.77V175.73H827.3V146.29H799.73V175.73H778.26V98.25Z" fill="black"/>
</svg>
