<svg id="Layer_1" data-name="Layer 1" xmlns="http://www.w3.org/2000/svg" viewBox="0 0 744 726"><defs><style>.cls-1{fill:#a0a0a0;}</style></defs><title>Artboard 2 copy 3</title><path class="cls-1" d="M282,542.54c182.82,0,282.79-151.49,282.79-282.81,0-4.3-.07-8.59-.3-12.84A201.47,201.47,0,0,0,614,195.42a199,199,0,0,1-57,15.65,100,100,0,0,0,43.71-55,200,200,0,0,1-63.13,24.15,99.4,99.4,0,0,0-171.91,67.94,101.91,101.91,0,0,0,2.55,22.7A282.4,282.4,0,0,1,163.31,167,99.43,99.43,0,0,0,194.1,299.7a98.69,98.69,0,0,1-45-12.45c0,.45,0,.84,0,1.27A99.42,99.42,0,0,0,228.75,386a99.55,99.55,0,0,1-26.15,3.51,98.22,98.22,0,0,1-18.69-1.84,99.5,99.5,0,0,0,92.83,69.07,199.34,199.34,0,0,1-123.45,42.55,202,202,0,0,1-23.69-1.39A281.08,281.08,0,0,0,282,542.54"/></svg>